<?xml version="1.0" standalone="no"?>
<!DOCTYPE svg PUBLIC "-//W3C//DTD SVG 20010904//EN"
 "http://www.w3.org/TR/2001/REC-SVG-20010904/DTD/svg10.dtd">
<svg version="1.0" xmlns="http://www.w3.org/2000/svg"
 width="1656.000000pt" height="1656.000000pt" viewBox="0 0 1656.000000 1656.000000"
 preserveAspectRatio="xMidYMid meet">
<metadata>
Created by potrace 1.11, written by Peter Selinger 2001-2013
</metadata>
<g transform="translate(0.000000,1656.000000) scale(0.100000,-0.100000)"
fill="#000000" stroke="none">
<path d="M7795 16549 c-2438 -142 -4674 -1347 -6151 -3314 -896 -1192 -1456
-2631 -1603 -4115 -79 -795 -45 -1614 99 -2375 385 -2039 1513 -3845 3185
-5101 1192 -896 2631 -1456 4115 -1603 778 -77 1582 -46 2326 90 2059 376
3884 1508 5150 3194 762 1014 1283 2210 1513 3469 133 725 166 1527 95 2276
-219 2323 -1406 4432 -3289 5846 -619 465 -1322 849 -2055 1124 -782 292
-1592 461 -2444 510 -204 11 -734 11 -941 -1z m-735 -2654 c516 -83 958 -367
1243 -796 69 -106 156 -279 195 -390 41 -117 80 -297 95 -435 l12 -116 135
-72 c160 -86 209 -112 660 -356 213 -115 354 -191 510 -275 80 -43 192 -104
250 -135 58 -32 200 -109 315 -170 116 -62 287 -154 380 -205 94 -51 202 -109
240 -130 39 -21 158 -85 265 -143 107 -58 245 -132 305 -165 111 -60 294 -158
505 -272 358 -192 1050 -566 1142 -616 l107 -59 58 35 c32 19 92 46 133 60
477 157 969 -111 1087 -591 24 -100 22 -286 -5 -385 -63 -234 -225 -432 -437
-534 -145 -69 -196 -80 -375 -80 -149 1 -159 2 -253 34 -220 76 -384 217 -482
415 -114 232 -115 503 -1 729 l42 84 -31 18 c-16 9 -73 40 -125 67 -52 28
-108 59 -125 68 -16 10 -66 37 -110 60 -44 23 -102 55 -130 70 -27 16 -108 59
-180 98 -107 57 -1088 585 -1340 722 -350 189 -430 233 -500 270 -44 23 -98
53 -120 65 -22 12 -80 44 -130 70 -49 26 -128 69 -175 95 -47 26 -159 86 -250
135 -91 48 -212 113 -270 145 -58 32 -197 107 -310 168 -113 60 -339 182 -503
271 -165 88 -302 161 -306 161 -3 0 -17 -48 -30 -107 -71 -324 -242 -627 -496
-878 l-112 -111 140 -149 c77 -83 176 -188 221 -235 45 -47 142 -151 216 -230
74 -80 168 -180 210 -222 l75 -77 75 30 c108 43 279 85 400 100 130 15 373 7
490 -16 316 -62 608 -215 834 -438 249 -246 387 -502 463 -857 28 -131 25
-459 -5 -595 -48 -220 -122 -401 -235 -572 -402 -609 -1163 -877 -1856 -652
-166 54 -331 135 -438 215 -17 13 -37 24 -43 24 -7 0 -53 -39 -104 -87 -50
-49 -226 -214 -391 -368 -165 -154 -414 -388 -555 -519 -140 -132 -287 -269
-325 -305 -140 -131 -244 -229 -387 -364 l-147 -139 48 -61 c49 -63 120 -177
161 -256 70 -139 134 -369 148 -538 l7 -88 1224 0 1224 0 18 90 c47 232 159
435 339 616 180 180 364 284 600 340 130 31 430 34 560 5 241 -52 439 -163
621 -345 153 -154 252 -313 307 -497 79 -262 79 -498 1 -750 -61 -195 -159
-355 -309 -504 -182 -181 -374 -284 -630 -341 -146 -33 -369 -33 -518 -1 -309
67 -571 234 -760 487 -59 79 -141 240 -177 346 -19 56 -55 210 -55 235 0 2
-555 4 -1233 4 l-1233 0 -23 -98 c-121 -508 -520 -939 -1015 -1096 -152 -48
-226 -64 -364 -77 -361 -34 -763 80 -1060 300 -186 138 -374 363 -472 566 -45
92 -101 257 -125 365 -25 113 -32 410 -12 536 80 500 390 921 842 1144 322
160 664 205 1015 134 190 -38 406 -131 563 -241 l79 -56 56 55 c32 30 131 124
222 209 626 585 694 649 1344 1259 120 113 232 217 248 232 34 30 34 28 -31
108 -161 198 -279 465 -322 729 -27 166 -23 432 10 588 46 218 146 442 279
623 70 95 208 239 295 308 31 25 57 48 57 51 0 8 -30 41 -190 211 -70 74 -140
149 -155 165 -15 17 -82 89 -149 160 -67 72 -171 182 -231 246 l-110 117 -80
-40 c-506 -255 -1122 -255 -1629 -1 -87 43 -114 53 -127 45 -17 -11 -216 -165
-524 -405 -93 -73 -352 -274 -575 -446 -223 -173 -410 -319 -417 -325 -10 -9
-1 -34 37 -111 69 -139 93 -252 87 -405 -5 -135 -24 -215 -77 -325 -92 -192
-257 -342 -456 -414 -117 -42 -204 -55 -336 -48 -131 6 -217 29 -333 86 -426
211 -580 756 -328 1160 122 195 310 327 527 372 197 41 425 9 581 -80 l49 -28
96 74 c52 41 129 100 170 131 41 31 84 65 95 74 11 9 259 202 550 428 292 226
546 424 565 439 l34 27 -72 69 c-202 190 -368 454 -460 730 -71 212 -87 317
-87 570 0 190 3 235 23 330 98 470 358 871 742 1139 273 192 555 292 925 330
73 7 308 -4 405 -19z m2561 -776 c55 -24 107 -77 140 -141 28 -55 31 -164 6
-222 -83 -190 -323 -240 -470 -98 -53 51 -79 105 -84 177 -18 226 196 375 408
284z m2469 -829 c193 -76 301 -278 256 -474 -22 -91 -58 -155 -123 -217 -243
-230 -649 -93 -702 238 -34 211 95 407 309 470 64 19 192 10 260 -17z m-8170
-412 c202 -60 328 -254 300 -460 -33 -241 -293 -411 -525 -343 -124 35 -215
110 -269 222 -59 118 -58 239 2 367 83 176 300 271 492 214z m-1132 -1389
c105 -52 156 -135 156 -254 -1 -177 -126 -293 -307 -283 -83 4 -134 26 -185
77 -110 113 -111 307 -1 407 75 67 115 83 210 84 54 0 77 -6 127 -31z m3455
-1072 c221 -130 183 -452 -61 -523 -171 -50 -343 66 -368 249 -13 91 45 211
126 262 90 57 218 62 303 12z m5359 -11 c208 -49 287 -304 143 -464 -58 -65
-127 -95 -217 -95 -113 0 -204 58 -260 166 -32 61 -32 175 0 237 44 84 112
139 199 159 54 13 71 12 135 -3z m-5641 -1720 c139 -30 247 -114 310 -241 33
-67 34 -74 34 -186 0 -115 0 -117 -39 -192 -62 -123 -155 -199 -283 -232 -205
-53 -416 43 -509 231 -31 62 -37 86 -42 162 -6 117 19 204 83 290 77 102 148
144 300 176 39 8 81 5 146 -8z m-1751 -375 c147 -75 220 -215 190 -365 -15
-76 -31 -107 -86 -166 -110 -117 -296 -138 -430 -47 -94 63 -144 160 -144 279
0 136 84 255 217 309 67 27 190 22 253 -10z m8300 -497 c120 -53 186 -166 178
-304 -8 -124 -73 -222 -183 -271 -77 -35 -201 -33 -277 4 -105 51 -168 146
-176 263 -16 248 227 412 458 308z m-3457 -519 c185 -48 329 -186 381 -364 36
-125 13 -298 -55 -406 -207 -331 -680 -337 -891 -11 -101 157 -106 375 -11
539 63 108 196 207 324 241 71 19 181 20 252 1z m-930 -2919 c98 -23 173 -91
205 -185 17 -48 15 -145 -3 -189 -52 -124 -147 -186 -283 -183 -80 2 -136 25
-192 81 -58 58 -84 119 -84 200 0 139 93 253 227 280 60 11 66 11 130 -4z"/>
<path d="M6545 13424 c-113 -20 -174 -39 -298 -91 -310 -130 -570 -388 -699
-693 -80 -187 -111 -338 -111 -530 0 -354 132 -671 388 -931 274 -277 622
-413 1015 -396 209 9 365 50 552 145 256 130 444 317 587 584 87 164 131 338
138 554 12 349 -86 631 -314 905 -191 230 -493 403 -792 453 -117 20 -355 20
-466 0z"/>
<path d="M9295 9454 c-246 -37 -452 -141 -631 -318 -199 -197 -306 -420 -335
-700 -35 -329 87 -664 330 -906 99 -98 194 -164 336 -231 162 -78 243 -94 475
-94 182 0 202 2 294 28 428 119 742 454 830 889 21 103 22 309 1 416 -116 605
-690 1010 -1300 916z"/>
<path d="M3505 9376 c-171 -42 -323 -186 -375 -354 -98 -315 158 -652 495
-652 214 0 415 145 486 351 31 89 31 228 0 318 -86 248 -356 399 -606 337z"/>
<path d="M13761 9374 c-227 -61 -384 -262 -385 -494 -1 -332 320 -577 645
-492 87 23 168 73 239 149 192 204 186 499 -14 699 -133 132 -315 184 -485
138z"/>
<path d="M5205 5318 c-632 -117 -1024 -737 -850 -1344 65 -225 202 -423 397
-569 84 -63 264 -150 368 -177 72 -19 112 -22 260 -23 187 0 255 10 370 52
170 64 344 181 447 300 328 382 361 896 85 1306 -158 233 -411 398 -692 451
-90 18 -303 20 -385 4z"/>
<path d="M10456 4899 c-222 -54 -416 -210 -515 -413 -57 -118 -72 -177 -78
-306 -7 -144 15 -241 84 -380 40 -80 63 -111 143 -191 84 -86 107 -102 200
-148 166 -81 305 -106 457 -81 557 90 847 692 562 1166 -171 284 -530 432
-853 353z"/>
</g>
</svg>
