<svg width="167px" height="167px" viewBox="0 0 167 167" version="1.1" xmlns="http://www.w3.org/2000/svg">
    <g id="Hackathon" stroke="none" stroke-width="1" fill="none" fill-rule="evenodd">
        <g id="Desktop-HD" transform="translate(-460.000000, -215.000000)">
            <g id="Group-2" transform="translate(464.000000, 200.000000)">
                <g id="Group" transform="translate(0.000000, 19.000000)">
                    <circle id="circle-copy-2" stroke="#FFFFFF" stroke-width="7" cx="79.5" cy="79.5" r="79.5"></circle>
                    <g id="Group-Copy-2" transform="translate(24.000000, 29.000000)">
                        <path d="M58.9171771,16.8849558 L58.9171771,16.9868788 L60.031258,17.4964942 L60.031258,17.3945711 L58.9171771,16.8849558 Z M58.4715447,17.8022634 L60.031258,18.515725 L60.031258,18.4036096 L58.4715447,17.8022634 Z"
                              id="Shape" fill="#000000" fill-rule="nonzero"></path>
                        <path d="M58.4255404,17.5182613 L58.4255404,17.5256734 L58.4483148,17.5775579 L58.4574246,17.5997941 L58.4624349,17.6146182 L58.4715447,17.6294423 L58.4715447,17.5553216 L58.4255404,17.5182613 Z M56.6309147,15.9987871 L56.6309147,15.9906339 L56.6263598,15.9906339 L56.621805,15.9832218 L56.6167946,15.9758097 L56.6122397,15.9758097 L56.6122397,15.9683977 L56.6031299,15.9602444 L56.5981195,15.9528323 L56.5853659,15.9469027 L56.598575,15.9691389 L56.6081403,15.9765509 L56.6263598,16.0061992 L56.6354696,16.0061992 L56.64048,16.0136113 L56.6450349,16.0061992 L56.6450349,15.9987871 L56.6309147,15.9987871 Z"
                              id="Shape" fill="#000000" fill-rule="nonzero"></path>
                        <polygon id="Path" fill="#000000"
                                 points="58.4529235 16.8573516 58.4529235 16.8610321 58.4713603 16.886796 58.4787351 16.8978377 58.4827912 16.9051988 58.4901659 16.9125599 58.4901659 16.8757544"></polygon>
                        <polygon id="Shape" fill="#000000" fill-rule="nonzero"
                                 points="57.5284553 15.9469027 57.5284553 16.0586907 57.7512715 16.0586907 57.8626796 16.1704788 58.3083119 16.1704788 58.4308608 16.2934457 58.5422689 16.2934457 58.653677 16.4052338 58.653677 15.9469027"></polygon>
                        <polygon id="Shape" fill="#000000" fill-rule="nonzero"
                                 points="57.5284553 15.9469027 57.5284553 16.0586907 57.7512715 16.0586907 57.8626796 16.1704788 58.3083119 16.1704788 58.4308608 16.2934457 58.5422689 16.2934457 58.653677 16.4052338 58.653677 15.9469027"></polygon>
                        <path d="M57.9740877,15.9469027 L57.9740877,16.0586907 L58.1969038,16.0586907 L58.3083119,16.1704788 L58.7539443,16.1704788 L58.8764932,16.2934457 L58.9879013,16.2934457 L59.0993094,16.4052338 L59.0993094,15.9469027 L57.9740877,15.9469027 Z M58.9767605,16.7294192 L58.9767605,16.6064523 L58.6425362,16.4946642 L58.5311281,16.4946642 L58.5311281,16.3828761 L58.2971711,16.3828761 L58.2971711,16.2710881 L58.185763,16.2710881 L57.9629468,16.1481212 L57.8403979,16.0363331 L57.5284553,15.9469027 L57.8515388,16.2822669 L58.0854957,16.394055 L58.5311281,16.8412073 L58.7539443,16.8412073 L58.8764932,16.9529953 L58.9879013,16.8412073 L59.0881686,16.8412073 L59.0881686,16.7294192 L58.9767605,16.7294192 Z"
                              id="Shape" fill="#000000" fill-rule="nonzero"></path>
                        <path d="M57.9740877,15.9469027 L57.9740877,16.0586907 L58.1969038,16.0586907 L58.3083119,16.1704788 L58.7539443,16.1704788 L58.8764932,16.2934457 L58.9879013,16.2934457 L59.0993094,16.4052338 L59.0993094,15.9469027 L57.9740877,15.9469027 Z M58.9767605,16.7294192 L58.9767605,16.6064523 L58.6425362,16.4946642 L58.5311281,16.4946642 L58.5311281,16.3828761 L58.2971711,16.3828761 L58.2971711,16.2710881 L58.185763,16.2710881 L57.9629468,16.1481212 L57.8403979,16.0363331 L57.5284553,15.9469027 L57.8515388,16.2822669 L58.0854957,16.394055 L58.5311281,16.8412073 L58.7539443,16.8412073 L58.8764932,16.9529953 L58.9879013,16.8412073 L59.0881686,16.8412073 L59.0881686,16.7294192 L58.9767605,16.7294192 Z"
                              id="Shape" fill="#000000" fill-rule="nonzero"></path>
                        <path d="M57.9740877,15.9469027 L57.9740877,16.0586907 L58.1969038,16.0586907 L58.3083119,16.1704788 L58.7539443,16.1704788 L58.8764932,16.2934457 L58.9879013,16.2934457 L59.0993094,16.4052338 L59.0993094,15.9469027 L57.9740877,15.9469027 Z M58.9767605,16.7294192 L58.9767605,16.6064523 L58.6425362,16.4946642 L58.5311281,16.4946642 L58.5311281,16.3828761 L58.2971711,16.3828761 L58.2971711,16.2710881 L58.185763,16.2710881 L57.9629468,16.1481212 L57.8403979,16.0363331 L57.5284553,15.9469027 L57.8515388,16.2822669 L58.0854957,16.394055 L58.5311281,16.8412073 L58.7539443,16.8412073 L58.8764932,16.9529953 L58.9879013,16.8412073 L59.0881686,16.8412073 L59.0881686,16.7294192 L58.9767605,16.7294192 Z"
                              id="Shape" fill="#000000" fill-rule="nonzero"></path>
                        <path d="M57.9740877,15.9469027 L57.9740877,16.0586907 L58.1969038,16.0586907 L58.3083119,16.1704788 L58.7539443,16.1704788 L58.8764932,16.2934457 L58.9879013,16.2934457 L59.0993094,16.4052338 L59.0993094,15.9469027 L57.9740877,15.9469027 Z M58.9767605,16.7294192 L58.9767605,16.6064523 L58.6425362,16.4946642 L58.5311281,16.4946642 L58.5311281,16.3828761 L58.2971711,16.3828761 L58.2971711,16.2710881 L58.185763,16.2710881 L57.9629468,16.1481212 L57.8403979,16.0363331 L57.5284553,15.9469027 L57.8515388,16.2822669 L58.0854957,16.394055 L58.5311281,16.8412073 L58.7539443,16.8412073 L58.8764932,16.9529953 L58.9879013,16.8412073 L59.0881686,16.8412073 L59.0881686,16.7294192 L58.9767605,16.7294192 Z"
                              id="Shape" fill="#000000" fill-rule="nonzero"></path>
                        <path d="M57.9740877,15.9469027 L57.9740877,16.0586907 L58.1969038,16.0586907 L58.3083119,16.1704788 L58.7539443,16.1704788 L58.8764932,16.2934457 L58.9879013,16.2934457 L59.0993094,16.4052338 L59.0993094,15.9469027 L57.9740877,15.9469027 Z M58.9767605,16.7294192 L58.9767605,16.6064523 L58.6425362,16.4946642 L58.5311281,16.4946642 L58.5311281,16.3828761 L58.2971711,16.3828761 L58.2971711,16.2710881 L58.185763,16.2710881 L57.9629468,16.1481212 L57.8403979,16.0363331 L57.5284553,15.9469027 L57.8515388,16.2822669 L58.0854957,16.394055 L58.5311281,16.8412073 L58.7539443,16.8412073 L58.8764932,16.9529953 L58.9879013,16.8412073 L59.0881686,16.8412073 L59.0881686,16.7294192 L58.9767605,16.7294192 Z"
                              id="Shape" fill="#000000" fill-rule="nonzero"></path>
                        <path d="M57.9740877,15.9469027 L57.9740877,16.0586907 L58.1969038,16.0586907 L58.3083119,16.1704788 L58.7539443,16.1704788 L58.8764932,16.2934457 L58.9879013,16.2934457 L59.0993094,16.4052338 L59.0993094,15.9469027 L57.9740877,15.9469027 Z M58.9767605,16.7294192 L58.9767605,16.6064523 L58.6425362,16.4946642 L58.5311281,16.4946642 L58.5311281,16.3828761 L58.2971711,16.3828761 L58.2971711,16.2710881 L58.185763,16.2710881 L57.9629468,16.1481212 L57.8403979,16.0363331 L57.5284553,15.9469027 L57.8515388,16.2822669 L58.0854957,16.394055 L58.5311281,16.8412073 L58.7539443,16.8412073 L58.8764932,16.9529953 L58.9879013,16.8412073 L59.0881686,16.8412073 L59.0881686,16.7294192 L58.9767605,16.7294192 Z"
                              id="Shape" fill="#000000" fill-rule="nonzero"></path>
                        <path d="M57.9740877,15.9469027 L57.9740877,16.0586907 L58.1969038,16.0586907 L58.3083119,16.1704788 L58.7539443,16.1704788 L58.8764932,16.2934457 L58.9879013,16.2934457 L59.0993094,16.4052338 L59.0993094,15.9469027 L57.9740877,15.9469027 Z M58.9767605,16.7294192 L58.9767605,16.6064523 L58.6425362,16.4946642 L58.5311281,16.4946642 L58.5311281,16.3828761 L58.2971711,16.3828761 L58.2971711,16.2710881 L58.185763,16.2710881 L57.9629468,16.1481212 L57.8403979,16.0363331 L57.5284553,15.9469027 L57.8515388,16.2822669 L58.0854957,16.394055 L58.5311281,16.8412073 L58.7539443,16.8412073 L58.8764932,16.9529953 L58.9879013,16.8412073 L59.0881686,16.8412073 L59.0881686,16.7294192 L58.9767605,16.7294192 Z"
                              id="Shape" fill="#000000" fill-rule="nonzero"></path>
                        <path d="M57.9740877,15.9469027 L57.9740877,16.0586907 L58.1969038,16.0586907 L58.3083119,16.1704788 L58.7539443,16.1704788 L58.8764932,16.2934457 L58.9879013,16.2934457 L59.0993094,16.4052338 L59.0993094,15.9469027 L57.9740877,15.9469027 Z M58.9767605,16.7294192 L58.9767605,16.6064523 L58.6425362,16.4946642 L58.5311281,16.4946642 L58.5311281,16.3828761 L58.2971711,16.3828761 L58.2971711,16.2710881 L58.185763,16.2710881 L57.9629468,16.1481212 L57.8403979,16.0363331 L57.5284553,15.9469027 L57.8515388,16.2822669 L58.0854957,16.394055 L58.5311281,16.8412073 L58.7539443,16.8412073 L58.8764932,16.9529953 L58.9879013,16.8412073 L59.0881686,16.8412073 L59.0881686,16.7294192 L58.9767605,16.7294192 Z"
                              id="Shape" fill="#000000" fill-rule="nonzero"></path>
                        <path d="M57.9740877,15.9469027 L57.9740877,16.0586907 L58.1969038,16.0586907 L58.3083119,16.1704788 L58.7539443,16.1704788 L58.8764932,16.2934457 L58.9879013,16.2934457 L59.0993094,16.4052338 L59.0993094,15.9469027 L57.9740877,15.9469027 Z M58.9767605,16.7294192 L58.9767605,16.6064523 L58.6425362,16.4946642 L58.5311281,16.4946642 L58.5311281,16.3828761 L58.2971711,16.3828761 L58.2971711,16.2710881 L58.185763,16.2710881 L57.9629468,16.1481212 L57.8403979,16.0363331 L57.5284553,15.9469027 L57.8515388,16.2822669 L58.0854957,16.394055 L58.5311281,16.8412073 L58.7539443,16.8412073 L58.8764932,16.9529953 L58.9879013,16.8412073 L59.0881686,16.8412073 L59.0881686,16.7294192 L58.9767605,16.7294192 Z"
                              id="Shape" fill="#000000" fill-rule="nonzero"></path>
                        <path d="M57.9740877,15.9469027 L57.9740877,16.0586907 L58.1969038,16.0586907 L58.3083119,16.1704788 L58.7539443,16.1704788 L58.8764932,16.2934457 L58.9879013,16.2934457 L59.0993094,16.4052338 L59.0993094,15.9469027 L57.9740877,15.9469027 Z M58.9767605,16.7294192 L58.9767605,16.6064523 L58.6425362,16.4946642 L58.5311281,16.4946642 L58.5311281,16.3828761 L58.2971711,16.3828761 L58.2971711,16.2710881 L58.185763,16.2710881 L57.9629468,16.1481212 L57.8403979,16.0363331 L57.5284553,15.9469027 L57.8515388,16.2822669 L58.0854957,16.394055 L58.5311281,16.8412073 L58.7539443,16.8412073 L58.8764932,16.9529953 L58.9879013,16.8412073 L59.0881686,16.8412073 L59.0881686,16.7294192 L58.9767605,16.7294192 Z"
                              id="Shape" fill="#000000" fill-rule="nonzero"></path>
                        <path d="M58.4625415,17.592382 L58.4575897,17.5849699 L58.4485865,17.5256734 L58.4485865,17.5182613 L58.3900654,17.488613 L58.4035703,17.5182613 L58.4035703,17.5256734 L58.4260784,17.5775579 L58.4350816,17.5997941 L58.4400334,17.6146182 L58.4490366,17.6146182 L58.4715447,17.6294423 L58.4625415,17.592382 Z M56.6033723,15.9469027 L56.6033723,15.9543147 L56.6123756,15.9543147 L56.6168772,15.9617268 L56.6348837,15.9617268 L56.6398355,15.9698801 L56.6443371,15.9698801 L56.6488387,15.9772921 L56.6488387,15.9469027 L56.6033723,15.9469027 Z M56.6438869,15.9987871 L56.6438869,15.9906339 L56.6303821,15.9832218 L56.6258804,15.9832218 L56.6258804,15.9758097 L56.616427,15.9758097 L56.616427,15.9683977 L56.6119254,15.9683977 L56.6029222,15.9602444 L56.5979704,15.9528323 L56.5853659,15.9469027 L56.5984206,15.9691389 L56.607874,15.9765509 L56.6258804,16.0061992 L56.6348837,16.0061992 L56.6398355,16.0136113 L56.6443371,16.0061992 L56.6483885,16.0061992 L56.6483885,15.9987871 L56.6438869,15.9987871 Z"
                              id="Shape" fill="#000000" fill-rule="nonzero"></path>
                        <path d="M56.6441535,15.9469027 L56.6396314,15.9543806 L56.6351092,15.9469027 L56.6034544,15.9469027 L56.6034544,15.9543806 L56.6124986,15.9543806 L56.6170207,15.9618586 L56.6351092,15.9618586 L56.6400836,15.9700843 L56.6446057,15.9700843 L56.6491278,15.9775623 L56.6491278,15.9469027 L56.6441535,15.9469027 Z M56.6441535,15.9992483 L56.6441535,15.9910226 L56.6305871,15.9835446 L56.626065,15.9835446 L56.626065,15.9760667 L56.6165685,15.9760667 L56.6165685,15.9685887 L56.6120464,15.9685887 L56.6030021,15.960363 L56.5980278,15.952885 L56.5853659,15.9469027 L56.59848,15.9693365 L56.6079765,15.9768145 L56.626065,16.0067263 L56.6351092,16.0067263 L56.6400836,16.0142042 L56.6446057,16.0067263 L56.6486756,16.0067263 L56.6486756,15.9992483 L56.6441535,15.9992483 Z M58.1228888,17.2854564 L58.1048003,17.2854564 L58.2133313,17.360236 L58.1228888,17.2854564 Z M58.4665704,17.5995305 L58.4575261,17.5397069 L58.4575261,17.5322289 L58.3987385,17.5023171 L58.4123049,17.5322289 L58.4123049,17.5397069 L58.4349155,17.5920526 L58.4439597,17.6144864 L58.4715447,17.6294423 L58.4665704,17.5995305 Z"
                              id="Shape" fill="#000000" fill-rule="nonzero"></path>
                        <polygon id="Shape" fill="#000000" fill-rule="nonzero"
                                 points="58.7438452 16.8849558 58.4715447 16.8849558 60.1053475 18.0028365"></polygon>
                        <polygon id="Shape" fill="#000000" fill-rule="nonzero"
                                 points="58.7438452 16.8849558 58.4715447 16.8849558 60.1053475 18.0028365"></polygon>
                        <path d="M59.7370899,16.8849558 L59.6539671,16.8849558 L60.1527041,17.6615125 L59.7370899,16.8849558 Z M58.5941509,17.5838569 L58.6377904,17.3508898 L58.6793518,17.2732341 L58.5546676,17.1179228 L58.4715447,17.0325015 L58.5754483,17.7391682 L58.7001325,18.515725 L58.5941509,17.5838569 Z"
                              id="Shape" fill="#000000" fill-rule="nonzero"></path>
                        <polygon id="Shape" fill="#000000" fill-rule="nonzero"
                                 points="58.9171771 17.0079226 58.4715447 16.8849558 59.0285852 17.9022272 59.1399933 17.6674723 59.3739503 17.3321081 59.5967664 17.22032"></polygon>
                        <polygon id="Path" fill="#000000"
                                 points="58.4473925 16.8573516 58.4584546 16.8720738 58.4584546 16.8757544 58.4768914 16.9015183 58.4842661 16.9125599 58.4920096 16.9125599 58.4956969 16.9048308 58.4956969 16.8717058"></polygon>
                        <polygon id="Path" fill="#000000"
                                 points="58.4787351 16.8755703 58.4787351 16.8718898 58.4307994 16.8571676 58.4418615 16.8718898 58.4418615 16.8755703 58.4602983 16.9013342 58.4787351 16.9013342 58.4787351 16.9050148 58.4861098 16.9050148 58.4901659 16.9086953 58.51229 16.9127439"></polygon>
                        <polygon id="Path" fill="#000000"
                                 points="58.4475769 16.8628724 58.458639 16.8775946 58.458639 16.8812752 58.4770758 16.9070391 58.4955126 16.9070391 58.4955126 16.8775946"></polygon>
                        <polygon id="Path" fill="#000000"
                                 points="58.4475769 16.8628724 58.458639 16.8775946 58.458639 16.8812752 58.4770758 16.9070391 58.4955126 16.9070391 58.4955126 16.8775946"></polygon>
                        <polygon id="Shape" fill="#000000" fill-rule="nonzero"
                                 points="58.4715447 16.8849558 58.805769 17.3321081 58.805769 17.4438961 59.3628095 18.2264127 59.9198499 18.2264127 59.9198499 17.3321081"></polygon>
                        <polygon id="Shape" fill="#000000" fill-rule="nonzero"
                                 points="58.4715447 16.8849558 58.805769 17.3321081 58.805769 17.4438961 59.3628095 18.2264127 59.9198499 18.2264127 59.9198499 17.3321081"></polygon>
                        <polygon id="Shape" fill="#000000" fill-rule="nonzero"
                                 points="58.4715447 16.8849558 58.805769 17.3321081 58.805769 17.4438961 59.3628095 18.2264127 59.9198499 18.2264127 59.9198499 17.3321081"></polygon>
                        <polygon id="Shape" fill="#000000" fill-rule="nonzero"
                                 points="58.4715447 16.8849558 58.805769 17.3321081 58.805769 17.4438961 59.3628095 18.2264127 59.9198499 18.2264127 59.9198499 17.3321081"></polygon>
                        <path d="M108.171626,39.8888139 C106.545411,39.8888139 105.030075,40.386553 103.776781,41.2341843 L58.5129517,16.6573009 L58.5129517,16.5946226 L58.4057694,16.5466922 L58.4575126,16.5544348 L58.5129517,16.5581217 L58.5129517,16.532313 L58.5129517,16.5286261 L58.4833842,16.4843826 L58.5221915,16.4843826 L58.4833842,16.4843826 L58.5129517,16.4843826 L58.5129517,16.5065043 L58.4870801,16.4843826 L58.5129517,16.4843826 L58.5129517,16.4622609 C58.1433575,7.32598261 50.5740687,0 41.3305183,0 C31.8726032,0 24.1554767,7.67624348 24.1554767,17.1148522 C24.1554767,22.2618435 26.4395688,26.885287 30.0541998,30.0269426 L15.8359118,41.131687 C14.616251,40.3463652 13.1600499,39.8895513 11.6040584,39.8895513 C7.28719837,39.8895513 3.77235772,43.39216 3.77235772,47.7018435 C3.77235772,52.0082087 7.28350243,55.5108174 11.600732,55.5108174 C15.9175921,55.5108174 19.4320631,52.0082087 19.4320631,47.7018435 C19.4320631,46.042713 18.9109353,44.5052522 18.0239093,43.2406261 L32.5933119,31.8589913 C35.1472076,33.3632696 38.1224408,34.2297043 41.2972548,34.2297043 C44.3541683,34.2297043 47.2292414,33.4259478 49.7166102,32.0212174 L57.6444054,40.5270261 C53.8039522,43.2999861 51.3021692,47.8087652 51.3021692,52.8893913 C51.3021692,56.7680696 52.7620662,60.31824 55.1603629,63.010087 L37.2609168,79.885287 C34.769852,77.9312 31.6319974,76.7661217 28.228035,76.7661217 C20.1524022,76.7661217 13.5773217,83.3252174 13.5773217,91.3849043 C13.5773217,99.4442226 20.1524022,106 28.228035,106 C35.442883,106 41.4598762,100.771896 42.6647533,93.9104696 L65.860484,93.9104696 C66.5627129,99.7653565 71.57441,104.318748 77.6283627,104.318748 C84.1631574,104.318748 89.481248,99.0128487 89.481248,92.4946783 C89.481248,85.9724522 84.1627878,80.6669217 77.6283627,80.6669217 C71.6150654,80.6669217 66.6292399,85.160953 65.8752677,90.9609043 L42.8754219,90.9609043 C42.7789579,87.5467826 41.500162,84.4202435 39.4341305,81.9794783 L57.377928,65.0600348 C59.9429116,66.9993739 63.1362053,68.1497043 66.5956068,68.1497043 C75.0334419,68.1497043 81.8931099,61.3030261 81.8931099,52.8893913 C81.8931099,44.4757565 75.0334419,37.6327652 66.5956068,37.6327652 C64.359562,37.6327652 62.2343955,38.1120696 60.3198976,38.9781357 L52.2298506,30.295353 C55.3418336,27.7222261 57.5261352,24.0754574 58.2172763,19.9313183 L58.1433575,19.9165704 L58.1433575,19.9018226 C58.1433575,19.8981357 58.1433575,19.8981357 58.1433575,19.8944487 L58.1433575,19.8538922 L58.2172763,19.8911304 L58.2246682,19.8948174 L58.2357561,19.9021913 L101.585457,43.3987965 L101.589153,43.3987965 L101.626482,43.4172313 C100.813375,44.6449878 100.340295,46.1197704 100.340295,47.7014748 C100.340295,52.00784 103.855135,55.5104487 108.171995,55.5104487 C112.488855,55.5104487 116,52.00784 116,47.7014748 C115.99963,43.3914226 112.488486,39.8888139 108.171626,39.8888139 Z M11.6003625,52.5018922 C8.94630665,52.5018922 6.78787664,50.3483409 6.78787664,47.7011061 C6.78787664,45.0538713 8.94630665,42.9006887 11.6003625,42.9006887 C14.2540487,42.9006887 16.4124787,45.0538713 16.4124787,47.7011061 C16.4124787,50.3483409 14.2540487,52.5018922 11.6003625,52.5018922 Z M28.2284046,101.48311 C22.6475325,101.48311 18.10522,96.95184 18.10522,91.3845357 C18.10522,85.8135443 22.6475325,81.2822748 28.2284046,81.2822748 C33.8129727,81.2822748 38.3552851,85.8135443 38.3552851,91.3845357 C38.3552851,96.95184 33.8129727,101.48311 28.2284046,101.48311 Z M77.6283627,85.1867617 C81.6683966,85.1867617 84.9537193,88.4648348 84.9537193,92.4943096 C84.9537193,96.5237843 81.668027,99.8018574 77.6283627,99.8018574 C73.5886983,99.8018574 70.3033756,96.5237843 70.3033756,92.4943096 C70.3033756,88.4648348 73.5886983,85.1867617 77.6283627,85.1867617 Z M66.5959764,42.1452313 C72.5353549,42.1452313 77.3659508,46.9677704 77.3659508,52.8893913 C77.3659508,58.8139617 72.5357245,63.6331826 66.5959764,63.6331826 C60.6599243,63.6331826 55.826002,58.8143304 55.826002,52.8893913 C55.826002,46.9677704 60.6602939,42.1452313 66.5959764,42.1452313 Z M41.2972548,29.7128139 C34.3341004,29.7128139 28.6682217,24.0607096 28.6682217,17.1144835 C28.6682217,10.1682574 34.3341004,4.51615304 41.2972548,4.51615304 C48.2604091,4.51615304 53.9262879,10.1682574 53.9262879,17.1144835 C53.9262879,24.0607096 48.2604091,29.7128139 41.2972548,29.7128139 Z M57.034575,15.7761183 L57.030879,15.7761183 L57.0271831,15.7798052 L57.0231175,15.7761183 L57.0157257,15.7761183 L57.0009419,15.7613704 L56.9931804,15.7576835 L56.9828318,15.7466226 L56.99355,15.7503096 L56.9976155,15.7539965 L57.0050074,15.7580522 L57.0087034,15.7580522 L57.0087034,15.7617391 L57.0164649,15.7617391 L57.0164649,15.7654261 L57.0201608,15.7654261 L57.0312486,15.769113 L57.0312486,15.7731687 L57.034575,15.7731687 L57.034575,15.7761183 Z M57.034575,15.7613704 L57.030879,15.7576835 L57.0271831,15.7576835 L57.0231175,15.7536278 L57.0083338,15.7536278 L57.0046378,15.7499409 L56.997246,15.7499409 L56.997246,15.7466226 L57.0342054,15.7466226 L57.0342054,15.7613704 L57.034575,15.7613704 Z M58.0324793,16.4471443 L58.0139995,16.413593 L58.0287833,16.4176487 L58.050959,16.4250226 L58.0435671,16.4287096 L58.0358056,16.4397704 L58.0542853,16.4840139 L58.0324793,16.4471443 Z M58.2246682,16.4065878 L58.239452,16.4065878 L58.3133708,16.4434574 L58.2246682,16.4065878 Z M108.171626,52.5018922 C105.51757,52.5018922 103.35914,50.3483409 103.35914,47.7011061 C103.35914,45.0538713 105.51757,42.9006887 108.171626,42.9006887 C110.825312,42.9006887 112.983742,45.0538713 112.983742,47.7011061 C112.983742,50.3483409 110.825312,52.5018922 108.171626,52.5018922 Z"
                              id="Shape" fill="#FFFFFF" fill-rule="nonzero"></path>
                        <ellipse id="Oval" fill="#FFFFFF" cx="89.5934959" cy="18.7610619" rx="3.77235772"
                                 ry="3.75221239"></ellipse>
                        <path d="M66.0162602,76.4507497 C66.0162602,79.301466 63.9051339,81.6106195 61.301165,81.6106195 C58.6957881,81.6106195 56.5853659,79.301466 56.5853659,76.4507497 C56.5853659,73.6019592 58.695436,71.2920354 61.301165,71.2920354 C63.9051339,71.2920354 66.0162602,73.6019592 66.0162602,76.4507497 Z"
                              id="Path" fill="#FFFFFF"></path>
                        <path d="M16.9756098,23.4506323 C16.9756098,25.5232995 15.2868542,27.2035398 13.203252,27.2035398 C11.1203487,27.2035398 9.43089431,25.5232995 9.43089431,23.4506323 C9.43089431,21.3790078 11.1203487,19.699115 13.203252,19.699115 C15.2868542,19.699115 16.9756098,21.3790078 16.9756098,23.4506323 Z"
                              id="Path" fill="#FFFFFF"></path>
                        <ellipse id="Oval" fill="#FFFFFF" cx="94.3089431" cy="70.3539823" rx="2.82926829"
                                 ry="2.81415929"></ellipse>
                        <path d="M36.7804878,63.3189565 C36.7804878,65.6506389 34.8805795,67.539823 32.5362109,67.539823 C30.1925913,67.539823 28.2926829,65.6506389 28.2926829,63.3189565 C28.2926829,60.9865293 30.1925913,59.0973451 32.5362109,59.0973451 C34.8805795,59.0973451 36.7804878,60.9865293 36.7804878,63.3189565 Z"
                              id="Path" fill="#FFFFFF"></path>
                        <path d="M19.804878,65.195453 C19.804878,67.009233 18.3279665,68.4778761 16.5048319,68.4778761 C14.6816973,68.4778761 13.203252,67.0088516 13.203252,65.195453 C13.203252,63.3820544 14.6813138,61.9115044 16.5048319,61.9115044 C18.3283499,61.9115044 19.804878,63.381673 19.804878,65.195453 Z"
                              id="Path" fill="#FFFFFF"></path>
                        <ellipse id="Oval" fill="#FFFFFF" cx="2.82926829" cy="34.7079646" rx="2.82926829"
                                 ry="2.81415929"></ellipse>
                        <ellipse id="Oval" fill="#FFFFFF" cx="53.7560976" cy="102.247788" rx="2.82926829"
                                 ry="2.81415929"></ellipse>
                        <ellipse id="Oval" fill="#FFFFFF" cx="85.8211382" cy="45.0265487" rx="2.82926829"
                                 ry="2.81415929"></ellipse>
                        <ellipse id="Oval" fill="#FFFFFF" cx="34.8943089" cy="45.0265487" rx="2.82926829"
                                 ry="2.81415929"></ellipse>
                        <ellipse id="Oval" fill="#FFFFFF" cx="66.9593496" cy="10.3185841" rx="2.82926829"
                                 ry="2.81415929"></ellipse>
                    </g>
                </g>
            </g>
        </g>
    </g>
</svg>
