<?xml version="1.0" encoding="UTF-8"?>
<svg width="65px" height="60px" viewBox="0 0 65 60" version="1.1" xmlns="http://www.w3.org/2000/svg" xmlns:xlink="http://www.w3.org/1999/xlink">
    <!-- Generator: Sketch 53.2 (72643) - https://sketchapp.com -->
    <title>projector copy</title>
    <desc>Created with Sketch.</desc>
    <g id="Hackathon" stroke="none" stroke-width="1" fill="none" fill-rule="evenodd" stroke-linecap="round" stroke-linejoin="round">
        <g id="Desktop-HD" transform="translate(-622.000000, -2806.000000)" stroke="#FFFFFF" stroke-width="3">
            <g id="projector-copy" transform="translate(624.000000, 2808.000000)">
                <path d="M45.6408584,2 L12,2 L12,49 L45.6408584,49 C47.4960612,49 49,47.4969558 49,45.6428571 L49,5.35714285 C49,3.50304405 47.4960612,2 45.6408584,2 Z" id="Path" transform="translate(30.500000, 25.500000) rotate(90.000000) translate(-30.500000, -25.500000) "></path>
                <path d="M24,44 L17,56" id="Path"></path>
                <path d="M44,44 L37,54" id="Path" transform="translate(40.500000, 49.000000) scale(-1, 1) translate(-40.500000, -49.000000) "></path>
                <path d="M0,6.5 L61,6.5" id="Path"></path>
                <path d="M30.0000006,0.00368109882 L30.0000026,0.00368109882 C33.8645534,0.0093954816 36.9963142,3.13950984 37,7 L37,7 L23.0000032,6.99263679 C22.9963192,3.13071013 26.1303252,0 29.9963176,0 C29.9975459,0 29.9987742,3.14668656e-07 30.0000006,0.00368109882 Z" id="Path"></path>
            </g>
        </g>
    </g>
</svg>