<?xml version="1.0" encoding="UTF-8"?>
<svg width="112px" height="146px" viewBox="0 0 112 146" version="1.1" xmlns="http://www.w3.org/2000/svg" xmlns:xlink="http://www.w3.org/1999/xlink">
    <!-- Generator: Sketch 53.2 (72643) - https://sketchapp.com -->
    <title>fingerprint</title>
    <desc>Created with Sketch.</desc>
    <g id="Hackathon" stroke="none" stroke-width="1" fill="none" fill-rule="evenodd" stroke-linecap="round" stroke-linejoin="round">
        <g id="Desktop-HD" transform="translate(-341.000000, -1568.000000)" stroke="#FFFFFF" stroke-width="3">
            <g id="fingerprint" transform="translate(343.000000, 1570.000000)">
                <path d="M108,89.01625 C108,113.37684 96.7005612,142 54,142 C47.1797512,142 41.1605871,141.269785 35.8605986,139.943355 M20.0115478,133.00712 C4.80970143,122.617567 0,104.909709 0,89.01625 L0,53.25 C0,39.3497947 5.89198059,26.8066221 15.3475013,17.9165833 M30.3892314,5.90004924 C37.4068543,2.13746308 45.4502958,0 54,0 C69.7752719,0 85.4355518,6.41444113 94.5,17.75 M105.35285,28.5850786 C107.068855,33.537757 108,38.8491485 108,44.375 C108,38.4583333 108,47.3333333 108,71" id="Shape"></path>
                <path d="M23.4375,115 C20.5182442,109.119868 19,102.652682 19,96.0978103 L19,79.6432138 L19,53.2246936 C19,33.7706325 34.8938914,18 54.5,18 C74.1061086,18 90,33.7706325 90,53.2246936 L90,88.7135724" id="Path"></path>
                <path d="M54.6666667,124 C42.8888889,118.066666 37,109.255666 37,97.567 L37,52.8 C37,42.9693314 44.9096361,35 54.6666667,35 C64.4236973,35 72.3333333,42.9693314 72.3333333,52.8 L72.3333333,88.667 C72.3333333,94.6003336 75.2777777,97.567 81.1666667,97.567 C87.0555556,97.567 90,94.6003336 90,88.667" id="Path"></path>
                <path d="M55,54 L55,89.6942857 C55,107.231429 64,116 82,116" id="Path"></path>
            </g>
        </g>
    </g>
</svg>