<svg xmlns="http://www.w3.org/2000/svg" viewBox="0 0 200 298">
    <defs/>
    <g stroke="#FFF" fill="none" fill-rule="evenodd" stroke-linecap="round" stroke-linejoin="round">
        <path d="M108.4 206.563H140L92.6 278v-55.539l-31.6-.023L108.4 151z" stroke-width="3"/>
        <path d="M34.605 132.462l-.095-32.49C34.39 34.76 56.16 2.155 99.816 2.155c43.657 0 65.394 32.605 65.212 97.815l.001 32.491H34.605zm0 0h130.79c18.007 0 32.605 14.586 32.605 32.577v.092l-.276 97.73c-.05 17.956-14.633 32.485-32.605 32.485H34.605C16.598 295.346 2 280.76 2 262.769v-97.73c0-17.991 14.598-32.577 32.605-32.577z"
              stroke-width="4"/>
    </g>
</svg>
