<?xml version="1.0" encoding="UTF-8"?>
<svg width="60px" height="60px" viewBox="0 0 60 60" version="1.1" xmlns="http://www.w3.org/2000/svg" xmlns:xlink="http://www.w3.org/1999/xlink">
    <!-- Generator: Sketch 53.2 (72643) - https://sketchapp.com -->
    <title>move</title>
    <desc>Created with Sketch.</desc>
    <g id="Hackathon" stroke="none" stroke-width="1" fill="none" fill-rule="evenodd" stroke-linecap="round" stroke-linejoin="round">
        <g id="Desktop-HD" transform="translate(-1250.000000, -2804.000000)" stroke="#FFFFFF" stroke-width="3">
            <g id="move" transform="translate(1252.000000, 2806.000000)">
                <path d="M47.6294737,8.37052579 L8.37052635,47.6294731" id="Path" transform="translate(28.000000, 27.999999) rotate(45.000000) translate(-28.000000, -27.999999) "></path>
                <path d="M8.37052635,8.37052579 L47.6294737,47.6294731" id="Path" transform="translate(28.000000, 27.999999) rotate(45.000000) translate(-28.000000, -27.999999) "></path>
                <polyline id="Path" transform="translate(51.500000, 29.000000) scale(-1, 1) rotate(-180.000000) translate(-51.500000, -29.000000) " points="47 20 56 29 47 38"></polyline>
                <polyline id="Path" transform="translate(4.500000, 29.000000) rotate(-180.000000) translate(-4.500000, -29.000000) " points="0 20 9 29 0 38"></polyline>
                <polyline id="Path" transform="translate(29.000000, 4.500000) rotate(-180.000000) translate(-29.000000, -4.500000) " points="38 0 29 9 20 0"></polyline>
                <polyline id="Path" transform="translate(29.000000, 51.500000) scale(-1, 1) translate(-29.000000, -51.500000) " points="38 47 29 56 20 47"></polyline>
            </g>
        </g>
    </g>
</svg>