<?xml version="1.0" encoding="UTF-8"?>
<svg width="273px" height="271px" viewBox="0 0 273 271" version="1.1" xmlns="http://www.w3.org/2000/svg" xmlns:xlink="http://www.w3.org/1999/xlink">
    <!-- Generator: Sketch 53.2 (72643) - https://sketchapp.com -->
    <title>thread</title>
    <desc>Created with Sketch.</desc>
    <g id="Hackathon" stroke="none" stroke-width="1" fill="none" fill-rule="evenodd" stroke-linecap="round" stroke-linejoin="round">
        <g id="Desktop-HD" transform="translate(-1114.000000, -4672.000000)" stroke="#FFFFFF" stroke-width="4">
            <g id="thread" transform="translate(1116.000000, 4674.000000)">
                <path d="M224,60 C248.852813,60 269,80.071855 269,104.831743 L269,179.551314 C269,204.311202 248.852813,224.383057 224,224.383057 L186.98,224.368113 L161.250534,260.67961 C158.790828,264.147773 154.985966,266.385699 150.809719,266.890992 L149,267 C140.715729,267 134,260.309382 134,252.056086 L133.985,224.368113 L119,224.383057 C94.1471862,224.383057 74,204.311202 74,179.551314 L74,104.831743 C74,80.071855 94.1471862,60 119,60 L224,60 Z" id="Path" transform="translate(171.500000, 163.500000) scale(-1, 1) translate(-171.500000, -163.500000) "></path>
                <path d="M74.3988522,179.142857 L44.4985653,209 L44.4985653,149.285714 L30.9499139,149.285714 C14.5728996,149.285714 1.2432869,136.130168 1.05167361,119.777904 L0.00208966402,30.2064755 C-0.19112016,13.7179595 13.0381504,0.194974756 29.5504925,0.00204372143 C29.6671001,0.000681190714 29.7837145,0 29.9003299,0 L164.099713,0 C180.613186,0 194,13.3674982 194,29.8571429 L194,59.7142857" id="Path"></path>
            </g>
        </g>
    </g>
</svg>