<?xml version="1.0" encoding="UTF-8"?>
<svg width="153px" height="140px" viewBox="0 0 153 140" version="1.1" xmlns="http://www.w3.org/2000/svg" xmlns:xlink="http://www.w3.org/1999/xlink">
    <!-- Generator: Sketch 53.2 (72643) - https://sketchapp.com -->
    <title>projector</title>
    <desc>Created with Sketch.</desc>
    <g id="Hackathon" stroke="none" stroke-width="1" fill="none" fill-rule="evenodd" stroke-linecap="round" stroke-linejoin="round">
        <g id="Desktop-HD" transform="translate(-1138.000000, -1578.000000)" stroke="#FFFFFF" stroke-width="3">
            <g id="projector" transform="translate(1140.000000, 1580.000000)">
                <path d="M111.829115,4 L30,4 L30,120 L111.829115,120 C116.341771,120 120,116.290359 120,111.714286 L120,12.2857143 C120,7.70964064 116.341771,4 111.829115,4 Z" id="Path" transform="translate(75.000000, 62.000000) rotate(90.000000) translate(-75.000000, -62.000000) "></path>
                <path d="M57,107 L41,136" id="Path"></path>
                <path d="M106,107 L90,132" id="Path" transform="translate(98.000000, 119.500000) scale(-1, 1) translate(-98.000000, -119.500000) "></path>
                <path d="M0,16 L149,16" id="Path"></path>
                <path d="M73.5000015,0.00841394016 L73.5000061,0.00841394016 C82.6093044,0.0214753865 89.9913119,7.17602248 90,16 L90,16 L57.0000076,15.9831698 C56.9913239,7.15590886 64.3786238,0 73.49132,0 C73.4942154,0 73.4971107,7.19242641e-07 73.5000015,0.00841394016 Z" id="Path"></path>
            </g>
        </g>
    </g>
</svg>