<?xml version="1.0" encoding="UTF-8"?>
<svg width="70px" height="59px" viewBox="0 0 70 59" version="1.1" xmlns="http://www.w3.org/2000/svg" xmlns:xlink="http://www.w3.org/1999/xlink">
    <!-- Generator: Sketch 53.2 (72643) - https://sketchapp.com -->
    <title>users</title>
    <desc>Created with Sketch.</desc>
    <g id="Hackathon" stroke="none" stroke-width="1" fill="none" fill-rule="evenodd" stroke-linecap="round" stroke-linejoin="round">
        <g id="Desktop-HD" transform="translate(-1249.000000, -3101.000000)" stroke="#FFFFFF" stroke-width="3">
            <g id="users" transform="translate(1251.000000, 3103.000000)">
                <path d="M25.5,0 C31.5356833,0 36.4285714,4.92486775 36.4285714,11 L36.4285714,14.6666667 C36.4285714,20.7417989 31.5356833,25.6666667 25.5,25.6666667 C19.4643167,25.6666667 14.5714286,20.7417989 14.5714286,14.6666667 L14.5714286,11 C14.5714286,4.92486775 19.4643167,0 25.5,0 Z M51,51.3333333 C51,50.4433413 51,49.5533493 51,48.6633572 C51,36.9798546 37.5713667,29.3333333 25.5,29.3333333 C13.4286333,29.3333333 0,36.9798546 0,48.6633572 L0,51.3333333 C0,53.3583772 1.6309627,55 3.64285714,55 L47.3571429,55 C49.3690371,55 51,53.3583772 51,51.3333333 Z" id="Shape"></path>
                <path d="M40,0 C44.3013885,1.52071014 47.3755377,5.55007779 47.3755377,10.2817029 L47.3755377,13.9248943 C47.3755377,18.6504008 44.309334,22.6754649 40.0166808,24.2006852 C42.4676262,21.2892866 43.6913226,17.2558391 43.6877691,12.1003426 C43.6842155,6.94484612 42.4549593,2.91139858 40,0 Z M58.5502151,54 L62.2751075,54 C64.3323087,54 66,52.3688875 66,50.3568086 C66,49.4725146 66,48.5882206 66,47.7039266 C66,39.7986704 59.6325131,33.7534959 51.6719125,30.7009578 C51.6719125,30.7009578 62.2751075,39.4272343 58.5502151,54 Z" id="Shape" fill-rule="nonzero"></path>
            </g>
        </g>
    </g>
</svg>