<?xml version="1.0" encoding="utf-8"?>
<!-- Generator: Adobe Illustrator 23.0.3, SVG Export Plug-In . SVG Version: 6.00 Build 0)  -->
<svg version="1.1" id="Layer_1" xmlns="http://www.w3.org/2000/svg" xmlns:xlink="http://www.w3.org/1999/xlink" x="0px" y="0px"
	 viewBox="0 0 200 200" style="enable-background:new 0 0 200 200;" xml:space="preserve">
<style type="text/css">
	.st0{fill-rule:evenodd;clip-rule:evenodd;fill:#242424;}
	.st1{fill-rule:evenodd;clip-rule:evenodd;}
	.st2{fill:#FFFFFF;}
	.st3{fill-rule:evenodd;clip-rule:evenodd;fill:#FFFFFF;}
</style>
<g id="Icon">
	<g id="Logo" transform="translate(-1013.000000, -168.000000)">
		<g id="Group-3" transform="translate(1013.000000, 168.000000)">
			<circle id="circle" class="st0" cx="100" cy="100" r="94"/>
			<path id="Shape" d="M101.8,54.9L101.8,54.9l0.3,0.2v0L101.8,54.9z M101.7,55.1l0.4,0.2v0L101.7,55.1z"/>
			<path d="M101.7,54.9L101.7,54.9L101.7,54.9L101.7,54.9L101.7,54.9L101.7,54.9L101.7,54.9L101.7,54.9z M100,54L100,54L100,54
				L100,54L100,54L100,54L100,54L100,54L100,54L100,54L100,54L100,54L100,54L100,54L100,54L100,54L100,54L100,54z"/>
			<polygon id="Path" class="st1" points="101.7,54.9 101.7,54.9 101.7,54.9 101.7,54.9 101.7,55 101.7,55 101.7,54.9 			"/>
			<polygon points="99.9,54 99.9,54 100,54 100,54 100.1,54 100.2,54 100.2,54 100.2,54.1 100.2,54 			"/>
			<polygon points="99.9,54 99.9,54 100,54 100,54 100.1,54 100.2,54 100.2,54 100.2,54.1 100.2,54 			"/>
			<path d="M100,54L100,54L100,54L100,54l0.2,0.1l0,0h0l0,0V54H100z M100.3,54.1L100.3,54.1L100.3,54.1l-0.1-0.1v0h-0.1v0h0l-0.1,0
				l0,0l-0.1,0L100,54l0.1,0l0.1,0.1L100.3,54.1L100.3,54.1L100.3,54.1L100.3,54.1L100.3,54.1L100.3,54.1z"/>
			<path d="M100,54L100,54L100,54L100,54l0.2,0.1l0,0h0l0,0V54H100z M100.3,54.1L100.3,54.1L100.3,54.1l-0.1-0.1v0h-0.1v0h0l-0.1,0
				l0,0l-0.1,0L100,54l0.1,0l0.1,0.1L100.3,54.1L100.3,54.1L100.3,54.1L100.3,54.1L100.3,54.1L100.3,54.1z"/>
			<path d="M100,54L100,54L100,54L100,54l0.2,0.1l0,0h0l0,0V54H100z M100.3,54.1L100.3,54.1L100.3,54.1l-0.1-0.1v0h-0.1v0h0l-0.1,0
				l0,0l-0.1,0L100,54l0.1,0l0.1,0.1L100.3,54.1L100.3,54.1L100.3,54.1L100.3,54.1L100.3,54.1L100.3,54.1z"/>
			<path d="M100,54L100,54L100,54L100,54l0.2,0.1l0,0h0l0,0V54H100z M100.3,54.1L100.3,54.1L100.3,54.1l-0.1-0.1v0h-0.1v0h0l-0.1,0
				l0,0l-0.1,0L100,54l0.1,0l0.1,0.1L100.3,54.1L100.3,54.1L100.3,54.1L100.3,54.1L100.3,54.1L100.3,54.1z"/>
			<path d="M100,54L100,54L100,54L100,54l0.2,0.1l0,0h0l0,0V54H100z M100.3,54.1L100.3,54.1L100.3,54.1l-0.1-0.1v0h-0.1v0h0l-0.1,0
				l0,0l-0.1,0L100,54l0.1,0l0.1,0.1L100.3,54.1L100.3,54.1L100.3,54.1L100.3,54.1L100.3,54.1L100.3,54.1z"/>
			<path d="M100,54L100,54L100,54L100,54l0.2,0.1l0,0h0l0,0V54H100z M100.3,54.1L100.3,54.1L100.3,54.1l-0.1-0.1v0h-0.1v0h0l-0.1,0
				l0,0l-0.1,0L100,54l0.1,0l0.1,0.1L100.3,54.1L100.3,54.1L100.3,54.1L100.3,54.1L100.3,54.1L100.3,54.1z"/>
			<path d="M100,54L100,54L100,54L100,54l0.2,0.1l0,0h0l0,0V54H100z M100.3,54.1L100.3,54.1L100.3,54.1l-0.1-0.1v0h-0.1v0h0l-0.1,0
				l0,0l-0.1,0L100,54l0.1,0l0.1,0.1L100.3,54.1L100.3,54.1L100.3,54.1L100.3,54.1L100.3,54.1L100.3,54.1z"/>
			<path d="M100,54L100,54L100,54L100,54l0.2,0.1l0,0h0l0,0V54H100z M100.3,54.1L100.3,54.1L100.3,54.1l-0.1-0.1v0h-0.1v0h0l-0.1,0
				l0,0l-0.1,0L100,54l0.1,0l0.1,0.1L100.3,54.1L100.3,54.1L100.3,54.1L100.3,54.1L100.3,54.1L100.3,54.1z"/>
			<path d="M100,54L100,54L100,54L100,54l0.2,0.1l0,0h0l0,0V54H100z M100.3,54.1L100.3,54.1L100.3,54.1l-0.1-0.1v0h-0.1v0h0l-0.1,0
				l0,0l-0.1,0L100,54l0.1,0l0.1,0.1L100.3,54.1L100.3,54.1L100.3,54.1L100.3,54.1L100.3,54.1L100.3,54.1z"/>
			<path d="M100,54L100,54L100,54L100,54l0.2,0.1l0,0h0l0,0V54H100z M100.3,54.1L100.3,54.1L100.3,54.1l-0.1-0.1v0h-0.1v0h0l-0.1,0
				l0,0l-0.1,0L100,54l0.1,0l0.1,0.1L100.3,54.1L100.3,54.1L100.3,54.1L100.3,54.1L100.3,54.1L100.3,54.1z"/>
			<path d="M101.8,54.9L101.8,54.9L101.8,54.9L101.8,54.9L101.8,54.9L101.8,54.9L101.8,54.9L101.8,54.9L101.8,54.9L101.8,54.9
				L101.8,54.9L101.8,54.9L101.8,54.9z M99.9,54L99.9,54L99.9,54L99.9,54L99.9,54L99.9,54L99.9,54L99.9,54L99.9,54L99.9,54z M100,54
				L100,54L100,54L100,54L100,54L100,54L100,54L100,54L100,54L100,54L100,54L100,54L100,54L100,54L100,54L100,54L100,54L100,54
				L100,54L100,54z"/>
			<path d="M100,54L100,54L100,54L100,54L100,54L100,54L100,54L100,54L100,54L100,54L100,54L100,54L100,54z M100,54L100,54L100,54
				L100,54L100,54L100,54L100,54L100,54L100,54L100,54L100,54L100,54L100,54L100,54L100,54L100,54L100,54L100,54L100,54L100,54z
				 M101.4,54.8L101.4,54.8L101.4,54.8L101.4,54.8z M101.8,54.9L101.8,54.9L101.8,54.9L101.8,54.9L101.8,54.9L101.8,54.9L101.8,54.9
				L101.8,54.9L101.8,54.9L101.8,54.9z"/>
			<polygon points="101.5,54.8 101.4,54.8 102,55 			"/>
			<polygon points="101.5,54.8 101.4,54.8 102,55 			"/>
			<path d="M101.9,54.8L101.9,54.8l0.2,0.3L101.9,54.8z M101.2,55L101.2,55l0.1-0.1l-0.1-0.1l0,0L101.2,55l0.1,0.3L101.2,55z"/>
			<polygon points="101.3,54.8 101.2,54.8 101.3,55 101.3,54.9 101.4,54.9 101.4,54.8 			"/>
			<polygon class="st1" points="101.7,54.9 101.7,54.9 101.7,54.9 101.7,54.9 101.7,54.9 101.7,54.9 101.7,54.9 101.7,54.9 			"/>
			<polygon class="st1" points="101.7,54.9 101.7,54.9 101.7,54.9 101.7,54.9 101.7,54.9 101.7,54.9 101.7,54.9 101.7,54.9 
				101.8,54.9 101.8,54.9 101.8,54.9 			"/>
			<polygon class="st1" points="101.7,54.9 101.7,54.9 101.7,54.9 101.7,54.9 101.7,54.9 101.7,54.9 			"/>
			<polygon class="st1" points="101.7,54.9 101.7,54.9 101.7,54.9 101.7,54.9 101.7,54.9 101.7,54.9 			"/>
			<polygon points="101.7,54.9 101.8,55 101.8,55 101.9,55.2 102,55.2 102,55 			"/>
			<polygon points="101.7,54.9 101.8,55 101.8,55 101.9,55.2 102,55.2 102,55 			"/>
			<polygon points="101.7,54.9 101.8,55 101.8,55 101.9,55.2 102,55.2 102,55 			"/>
			<polygon points="101.7,54.9 101.8,55 101.8,55 101.9,55.2 102,55.2 102,55 			"/>
			<path class="st2" d="M160.7,82.8c-1.9,0-3.7,0.6-5.2,1.6l-53.7-29.4V55l-0.1-0.1l0.1,0l0.1,0v0v0l0-0.1h0h0h0v0l0,0h0v0
				c-0.4-10.9-9.4-19.7-20.4-19.7C70.1,35.1,61,44.3,61,55.6c0,6.2,2.7,11.7,7,15.4L51.1,84.3c-1.4-0.9-3.2-1.5-5-1.5
				c-5.1,0-9.3,4.2-9.3,9.3c0,5.2,4.2,9.3,9.3,9.3c5.1,0,9.3-4.2,9.3-9.3c0-2-0.6-3.8-1.7-5.3L71,73.2c3,1.8,6.6,2.8,10.3,2.8
				c3.6,0,7-1,10-2.6l9.4,10.2c-4.6,3.3-7.5,8.7-7.5,14.8c0,4.6,1.7,8.9,4.6,12.1l-21.2,20.2c-3-2.3-6.7-3.7-10.7-3.7
				c-9.6,0-17.4,7.8-17.4,17.5c0,9.6,7.8,17.5,17.4,17.5c8.6,0,15.7-6.3,17.1-14.5h27.5c0.8,7,6.8,12.4,14,12.4
				c7.8,0,14.1-6.3,14.1-14.1c0-7.8-6.3-14.1-14.1-14.1c-7.1,0-13.1,5.4-13.9,12.3H83.2c-0.1-4.1-1.6-7.8-4.1-10.7l21.3-20.2
				c3,2.3,6.8,3.7,10.9,3.7c10,0,18.2-8.2,18.2-18.3s-8.1-18.2-18.2-18.2c-2.7,0-5.2,0.6-7.4,1.6l-9.6-10.4
				c3.7-3.1,6.3-7.4,7.1-12.4l-0.1,0v0c0,0,0,0,0,0v0l0.1,0l0,0l0,0L152.9,87h0l0,0c-1,1.5-1.5,3.2-1.5,5.1c0,5.2,4.2,9.3,9.3,9.3
				c5.1,0,9.3-4.2,9.3-9.3C170,87,165.8,82.8,160.7,82.8z M46.1,97.9c-3.2,0-5.7-2.6-5.7-5.7s2.6-5.7,5.7-5.7c3.1,0,5.7,2.6,5.7,5.7
				S49.2,97.9,46.1,97.9z M65.8,156.5c-6.6,0-12-5.4-12-12.1c0-6.7,5.4-12.1,12-12.1c6.6,0,12,5.4,12,12.1
				C77.8,151.1,72.4,156.5,65.8,156.5z M124.4,137c4.8,0,8.7,3.9,8.7,8.7c0,4.8-3.9,8.7-8.7,8.7c-4.8,0-8.7-3.9-8.7-8.7
				C115.7,140.9,119.6,137,124.4,137z M111.3,85.5c7,0,12.8,5.8,12.8,12.9c0,7.1-5.7,12.8-12.8,12.8c-7,0-12.8-5.8-12.8-12.8
				C98.6,91.3,104.3,85.5,111.3,85.5z M81.3,70.7c-8.3,0-15-6.8-15-15.1s6.7-15.1,15-15.1s15,6.8,15,15.1S89.6,70.7,81.3,70.7z
				 M100,54L100,54L100,54L100,54L100,54L100,54L100,54L100,54L100,54L100,54L100,54L100,54L100,54L100,54L100,54L100,54L100,54
				L100,54L100,54L100,54z M100,54L100,54L100,54L100,54L100,54L100,54L100,54L100,54L100,54L100,54L100,54z M101.2,54.8L101.2,54.8
				L101.2,54.8L101.2,54.8L101.2,54.8L101.2,54.8L101.2,54.8L101.2,54.8z M101.4,54.8L101.4,54.8l0.1,0L101.4,54.8z M160.7,97.9
				c-3.2,0-5.7-2.6-5.7-5.7s2.6-5.7,5.7-5.7c3.1,0,5.7,2.6,5.7,5.7S163.8,97.9,160.7,97.9z"/>
			<ellipse id="Oval" class="st3" cx="138.9" cy="58" rx="4.7" ry="4.8"/>
			<path class="st3" d="M111.2,127.1c0,3.3-2.6,5.9-5.9,5.9c-3.2,0-5.9-2.6-5.9-5.9c0-3.3,2.6-5.9,5.9-5.9
				C108.6,121.2,111.2,123.9,111.2,127.1z"/>
			<path class="st3" d="M52.8,62.8c0,2.6-2.1,4.8-4.7,4.8c-2.6,0-4.7-2.1-4.7-4.8c0-2.6,2.1-4.8,4.7-4.8
				C50.7,58,52.8,60.1,52.8,62.8z"/>
			<ellipse class="st3" cx="143.8" cy="118.8" rx="3.6" ry="3.6"/>
			<path class="st3" d="M76.1,110.5c0,2.8-2.2,5-5,5c-2.7,0-5-2.2-5-5c0-2.8,2.2-5,5-5C73.9,105.5,76.1,107.8,76.1,110.5z"/>
			<path class="st3" d="M54.9,113.4c0,2.1-1.7,3.8-3.8,3.8c-2.1,0-3.8-1.7-3.8-3.8c0-2.1,1.7-3.8,3.8-3.8
				C53.2,109.6,54.9,111.3,54.9,113.4z"/>
			<ellipse class="st3" cx="35.3" cy="76.9" rx="3.3" ry="3.3"/>
			<ellipse class="st3" cx="95.5" cy="157.6" rx="3.3" ry="3.3"/>
			<ellipse class="st3" cx="134.4" cy="89.3" rx="3.3" ry="3.3"/>
			<ellipse class="st3" cx="73.8" cy="88.9" rx="3.3" ry="3.3"/>
			<ellipse class="st3" cx="111.7" cy="47.1" rx="3.3" ry="3.3"/>
		</g>
	</g>
</g>
</svg>
