<?xml version="1.0" encoding="utf-8"?>
<!-- Generator: Adobe Illustrator 23.0.3, SVG Export Plug-In . SVG Version: 6.00 Build 0)  -->
<svg version="1.1" id="Layer_1" xmlns="http://www.w3.org/2000/svg" xmlns:xlink="http://www.w3.org/1999/xlink" x="0px" y="0px"
	 viewBox="0 0 654.1 187.7" style="enable-background:new 0 0 654.1 187.7;" xml:space="preserve">
<style type="text/css">
	.st0{fill-rule:evenodd;clip-rule:evenodd;}
</style>
<path id="BitDust-Copy" d="M269.6,95.1c8.1,2.7,14,10.8,14,20.5c0,15.7-10.6,24.4-28.5,24.4h-39.5V53h36.8
	c17.9,0,28.7,8.1,28.7,23.7C281.1,86,275.9,92.8,269.6,95.1z M237.6,87h12.9c6.6,0,10.1-2.6,10.1-8.1c0-5.5-3.5-7.9-10.1-7.9h-12.9
	V87z M237.6,121h15.2c6.3,0,9.8-3.4,9.8-8.4c0-5.3-3.5-8.6-9.8-8.6h-15.2V121z M315.6,139h-22V76h22V139z M317.6,59.1
	c0,7.2-5.8,11.9-12.5,11.9s-12.5-4.7-12.5-11.9c0-7.4,5.8-12.1,12.5-12.1S317.6,51.7,317.6,59.1z M356.3,140h-21.8V93.7h-10.9V76.5
	h10.9V59h21.8v17.5h12.3v17.2h-12.3V140z M399.6,120h9.4c14.5,0,22.6-9.1,22.6-23.4c0-14.5-8.1-23.6-22.6-23.6h-9.4V120z M378.6,53
	h32.5c27.1,0,43.5,17,43.5,43.5S438.2,140,411.1,140h-32.5V53z M523.6,139.6h-22v-5.5c-3.4,4-9.7,6.9-16.8,6.9
	c-13.9,0-22.2-9.2-22.2-23.3V76h21.9v36.5c0,5.4,2.5,9.2,8.1,9.2c4.1,0,7.9-2.7,9-7.1V76h22V139.6z M533.9,135v-18.5
	c6.1,4.9,16,8,22.5,8c4.4,0,7.2-1,7.2-3.8c0-2.5-2-3.5-5.8-4.4l-5-1.3c-11.8-2.5-19.3-8-19.3-19.4c0-13.2,11.1-20.6,26.1-20.6
	c9.1,0,16,1.8,22.2,5.6v18.1c-6.1-4.4-12.9-7.3-20.1-7.3c-3.8,0-6.4,1.3-6.4,3.8c0,2.4,1.8,3.2,5,4.1l5.8,1.7
	c13.9,3.7,19.4,9.3,19.4,19.9c0,13.5-11.8,20.1-27.5,20.1C549.2,141,539.8,138.9,533.9,135z M623.3,140h-21.8V93.7h-10.9V76.5h10.9
	V59h21.8v17.5h12.3v17.2h-12.3V140z"/>
<g id="circle-copy-3">
	<path d="M100.6,181.5c-48.2,0-87.5-39.3-87.5-87.5c0-48.2,39.3-87.5,87.5-87.5s87.5,39.3,87.5,87.5
		C188.1,142.2,148.8,181.5,100.6,181.5z M100.6,13.5c-44.4,0-80.5,36.1-80.5,80.5s36.1,80.5,80.5,80.5s80.5-36.1,80.5-80.5
		S145,13.5,100.6,13.5z"/>
</g>
<g id="Group-Copy-3" transform="translate(976.000000, 28.000000)">
	<path id="Shape" d="M-871.3,28L-871.3,28l0.3,0.2v0L-871.3,28z M-871.4,28.2l0.4,0.2v0L-871.4,28.2z"/>
	<path d="M-871.5,27.9L-871.5,27.9L-871.5,27.9L-871.5,27.9L-871.5,27.9L-871.5,27.9L-871.5,27.9L-871.5,27.9z M-873.4,27L-873.4,27
		L-873.4,27L-873.4,27L-873.4,27L-873.4,27L-873.4,27L-873.4,27L-873.4,27L-873.4,27L-873.4,27L-873.4,27L-873.4,27L-873.4,27
		L-873.4,27L-873.4,27L-873.4,27L-873.4,27z"/>
	<polygon id="Path" class="st0" points="-871.4,28 -871.4,28 -871.4,28 -871.4,28 -871.4,28 -871.4,28 -871.4,28 	"/>
	<polygon points="-872.4,27 -872.4,27 -872.4,27 -872.3,27.1 -872.2,27.1 -872.2,27.1 -872.2,27.1 -872.2,27.1 -872.2,27 	"/>
	<polygon points="-872.4,27 -872.4,27 -872.4,27 -872.3,27.1 -872.2,27.1 -872.2,27.1 -872.2,27.1 -872.2,27.1 -872.2,27 	"/>
	<path d="M-872.3,27L-872.3,27L-872.3,27L-872.3,27l0.2,0.1l0,0h0l0,0V27H-872.3z M-872.1,27.2L-872.1,27.2L-872.1,27.2l-0.1-0.1v0
		h-0.1v0h0l-0.1,0l0,0l-0.1,0l0.1,0.1l0.1,0l0.1,0.1L-872.1,27.2L-872.1,27.2L-872.1,27.2L-872.1,27.2L-872.1,27.2L-872.1,27.2z"/>
	<path d="M-872.3,27L-872.3,27L-872.3,27L-872.3,27l0.2,0.1l0,0h0l0,0V27H-872.3z M-872.1,27.2L-872.1,27.2L-872.1,27.2l-0.1-0.1v0
		h-0.1v0h0l-0.1,0l0,0l-0.1,0l0.1,0.1l0.1,0l0.1,0.1L-872.1,27.2L-872.1,27.2L-872.1,27.2L-872.1,27.2L-872.1,27.2L-872.1,27.2z"/>
	<path d="M-872.3,27L-872.3,27L-872.3,27L-872.3,27l0.2,0.1l0,0h0l0,0V27H-872.3z M-872.1,27.2L-872.1,27.2L-872.1,27.2l-0.1-0.1v0
		h-0.1v0h0l-0.1,0l0,0l-0.1,0l0.1,0.1l0.1,0l0.1,0.1L-872.1,27.2L-872.1,27.2L-872.1,27.2L-872.1,27.2L-872.1,27.2L-872.1,27.2z"/>
	<path d="M-872.3,27L-872.3,27L-872.3,27L-872.3,27l0.2,0.1l0,0h0l0,0V27H-872.3z M-872.1,27.2L-872.1,27.2L-872.1,27.2l-0.1-0.1v0
		h-0.1v0h0l-0.1,0l0,0l-0.1,0l0.1,0.1l0.1,0l0.1,0.1L-872.1,27.2L-872.1,27.2L-872.1,27.2L-872.1,27.2L-872.1,27.2L-872.1,27.2z"/>
	<path d="M-872.3,27L-872.3,27L-872.3,27L-872.3,27l0.2,0.1l0,0h0l0,0V27H-872.3z M-872.1,27.2L-872.1,27.2L-872.1,27.2l-0.1-0.1v0
		h-0.1v0h0l-0.1,0l0,0l-0.1,0l0.1,0.1l0.1,0l0.1,0.1L-872.1,27.2L-872.1,27.2L-872.1,27.2L-872.1,27.2L-872.1,27.2L-872.1,27.2z"/>
	<path d="M-872.3,27L-872.3,27L-872.3,27L-872.3,27l0.2,0.1l0,0h0l0,0V27H-872.3z M-872.1,27.2L-872.1,27.2L-872.1,27.2l-0.1-0.1v0
		h-0.1v0h0l-0.1,0l0,0l-0.1,0l0.1,0.1l0.1,0l0.1,0.1L-872.1,27.2L-872.1,27.2L-872.1,27.2L-872.1,27.2L-872.1,27.2L-872.1,27.2z"/>
	<path d="M-872.3,27L-872.3,27L-872.3,27L-872.3,27l0.2,0.1l0,0h0l0,0V27H-872.3z M-872.1,27.2L-872.1,27.2L-872.1,27.2l-0.1-0.1v0
		h-0.1v0h0l-0.1,0l0,0l-0.1,0l0.1,0.1l0.1,0l0.1,0.1L-872.1,27.2L-872.1,27.2L-872.1,27.2L-872.1,27.2L-872.1,27.2L-872.1,27.2z"/>
	<path d="M-872.3,27L-872.3,27L-872.3,27L-872.3,27l0.2,0.1l0,0h0l0,0V27H-872.3z M-872.1,27.2L-872.1,27.2L-872.1,27.2l-0.1-0.1v0
		h-0.1v0h0l-0.1,0l0,0l-0.1,0l0.1,0.1l0.1,0l0.1,0.1L-872.1,27.2L-872.1,27.2L-872.1,27.2L-872.1,27.2L-872.1,27.2L-872.1,27.2z"/>
	<path d="M-872.3,27L-872.3,27L-872.3,27L-872.3,27l0.2,0.1l0,0h0l0,0V27H-872.3z M-872.1,27.2L-872.1,27.2L-872.1,27.2l-0.1-0.1v0
		h-0.1v0h0l-0.1,0l0,0l-0.1,0l0.1,0.1l0.1,0l0.1,0.1L-872.1,27.2L-872.1,27.2L-872.1,27.2L-872.1,27.2L-872.1,27.2L-872.1,27.2z"/>
	<path d="M-872.3,27L-872.3,27L-872.3,27L-872.3,27l0.2,0.1l0,0h0l0,0V27H-872.3z M-872.1,27.2L-872.1,27.2L-872.1,27.2l-0.1-0.1v0
		h-0.1v0h0l-0.1,0l0,0l-0.1,0l0.1,0.1l0.1,0l0.1,0.1L-872.1,27.2L-872.1,27.2L-872.1,27.2L-872.1,27.2L-872.1,27.2L-872.1,27.2z"/>
	<path d="M-871.4,28L-871.4,28L-871.4,28L-871.4,28L-871.4,28L-871.4,28L-871.4,28L-871.4,28L-871.4,28L-871.4,28L-871.4,28
		L-871.4,28L-871.4,28z M-873.4,27L-873.4,27L-873.4,27L-873.4,27L-873.4,27L-873.4,27L-873.4,27L-873.4,27L-873.4,27L-873.4,27z
		 M-873.4,27L-873.4,27L-873.4,27L-873.4,27L-873.4,27L-873.4,27L-873.4,27L-873.4,27L-873.4,27L-873.4,27L-873.4,27L-873.4,27
		L-873.4,27L-873.4,27L-873.4,27L-873.4,27L-873.4,27L-873.4,27L-873.4,27L-873.4,27z"/>
	<path d="M-873.4,27L-873.4,27L-873.4,27L-873.4,27L-873.4,27L-873.4,27L-873.4,27L-873.4,27L-873.4,27L-873.4,27L-873.4,27
		L-873.4,27L-873.4,27z M-873.4,27L-873.4,27L-873.4,27L-873.4,27L-873.4,27L-873.4,27L-873.4,27L-873.4,27L-873.4,27L-873.4,27
		L-873.4,27L-873.4,27L-873.4,27L-873.4,27L-873.4,27L-873.4,27L-873.4,27L-873.4,27L-873.4,27L-873.4,27z M-871.8,27.8L-871.8,27.8
		L-871.8,27.8L-871.8,27.8z M-871.4,28L-871.4,28L-871.4,28L-871.4,28L-871.4,28L-871.4,28L-871.4,28L-871.4,28L-871.4,28L-871.4,28
		z"/>
	<polygon points="-871.3,28 -871.4,28 -870.8,28.3 	"/>
	<polygon points="-871.3,28 -871.4,28 -870.8,28.3 	"/>
	<path d="M-870.7,28L-870.7,28l0.2,0.3L-870.7,28z M-871.4,28.2L-871.4,28.2l0.1-0.1l-0.1-0.1l0,0L-871.4,28.2l0.1,0.3L-871.4,28.2z
		"/>
	<polygon points="-871.3,28 -871.4,28 -871.3,28.2 -871.3,28.2 -871.2,28.1 -871.2,28.1 	"/>
	<polygon class="st0" points="-871.5,28 -871.4,28 -871.4,28 -871.4,28 -871.4,28 -871.4,28 -871.4,28 -871.4,28 	"/>
	<polygon class="st0" points="-871.4,28 -871.4,28 -871.5,28 -871.5,28 -871.5,28 -871.4,28 -871.4,28 -871.4,28 -871.4,28 
		-871.4,28 -871.4,28 	"/>
	<polygon class="st0" points="-871.5,28 -871.4,28 -871.4,28 -871.4,28 -871.4,28 -871.4,28 	"/>
	<polygon class="st0" points="-871.5,28 -871.4,28 -871.4,28 -871.4,28 -871.4,28 -871.4,28 	"/>
	<polygon points="-871.4,28 -871.3,28.1 -871.3,28.1 -871.2,28.3 -871.1,28.3 -871.1,28.1 	"/>
	<polygon points="-871.4,28 -871.3,28.1 -871.3,28.1 -871.2,28.3 -871.1,28.3 -871.1,28.1 	"/>
	<polygon points="-871.4,28 -871.3,28.1 -871.3,28.1 -871.2,28.3 -871.1,28.3 -871.1,28.1 	"/>
	<polygon points="-871.4,28 -871.3,28.1 -871.3,28.1 -871.2,28.3 -871.1,28.3 -871.1,28.1 	"/>
	<path d="M-818.7,52.5c-1.7,0-3.3,0.5-4.7,1.4l-48-26.2v-0.1l-0.1-0.1l0.1,0l0.1,0v0v0l0,0h0h0h0v0l0,0h0v0
		c-0.4-9.7-8.4-17.5-18.2-17.5c-10,0-18.2,8.2-18.2,18.2c0,5.5,2.4,10.4,6.3,13.8l-15.1,11.8c-1.3-0.8-2.8-1.3-4.5-1.3
		c-4.6,0-8.3,3.7-8.3,8.3c0,4.6,3.7,8.3,8.3,8.3c4.6,0,8.3-3.7,8.3-8.3c0-1.8-0.6-3.4-1.5-4.8l15.4-12.1c2.7,1.6,5.9,2.5,9.2,2.5
		c3.2,0,6.3-0.9,8.9-2.4l8.4,9.1c-4.1,3-6.7,7.8-6.7,13.2c0,4.1,1.5,7.9,4.1,10.8l-19,18c-2.6-2.1-6-3.3-9.6-3.3
		c-8.6,0-15.5,7-15.5,15.6c0,8.6,7,15.6,15.5,15.6c7.7,0,14-5.6,15.3-12.9h24.6c0.7,6.2,6.1,11.1,12.5,11.1
		c6.9,0,12.6-5.7,12.6-12.6c0-7-5.6-12.6-12.6-12.6c-6.4,0-11.7,4.8-12.5,11H-888c-0.1-3.6-1.5-7-3.6-9.6l19-18
		c2.7,2.1,6.1,3.3,9.8,3.3c8.9,0,16.2-7.3,16.2-16.3s-7.3-16.3-16.2-16.3c-2.4,0-4.6,0.5-6.7,1.4l-8.6-9.3c3.3-2.7,5.6-6.6,6.3-11
		l-0.1,0v0c0,0,0,0,0,0v0l0.1,0l0,0l0,0l46,25h0l0,0c-0.9,1.3-1.4,2.9-1.4,4.6c0,4.6,3.7,8.3,8.3,8.3c4.6,0,8.3-3.7,8.3-8.3
		C-810.4,56.3-814.2,52.5-818.7,52.5z M-921.1,66c-2.8,0-5.1-2.3-5.1-5.1c0-2.8,2.3-5.1,5.1-5.1c2.8,0,5.1,2.3,5.1,5.1
		C-916,63.7-918.3,66-921.1,66z M-903.5,118.2c-5.9,0-10.7-4.8-10.7-10.8c0-5.9,4.8-10.8,10.7-10.8c5.9,0,10.7,4.8,10.7,10.8
		C-892.8,113.4-897.6,118.2-903.5,118.2z M-851.1,100.8c4.3,0,7.8,3.5,7.8,7.8s-3.5,7.8-7.8,7.8c-4.3,0-7.8-3.5-7.8-7.8
		S-855.4,100.8-851.1,100.8z M-862.8,54.9c6.3,0,11.4,5.1,11.4,11.5c0,6.3-5.1,11.5-11.4,11.5c-6.3,0-11.4-5.1-11.4-11.5
		C-874.2,60.1-869.1,54.9-862.8,54.9z M-889.6,41.7c-7.4,0-13.4-6-13.4-13.4s6-13.4,13.4-13.4c7.4,0,13.4,6,13.4,13.4
		S-882.3,41.7-889.6,41.7z M-873,26.8L-873,26.8L-873,26.8L-873,26.8L-873,26.8L-873,26.8L-873,26.8L-873,26.8L-873,26.8L-873,26.8
		L-873,26.8L-873,26.8L-873,26.8L-873,26.8L-873,26.8L-873,26.8L-873,26.8L-873,26.8L-873,26.8L-873,26.8z M-873,26.8L-873,26.8
		L-873,26.8L-873,26.8L-873,26.8L-873,26.8L-873,26.8L-873,26.8L-873,26.8L-873,26.8L-873,26.8z M-871.9,27.5L-871.9,27.5
		L-871.9,27.5L-871.9,27.5L-871.9,27.5L-871.9,27.5L-871.9,27.5L-871.9,27.5z M-871.7,27.5L-871.7,27.5L-871.7,27.5L-871.7,27.5z
		 M-818.7,66c-2.8,0-5.1-2.3-5.1-5.1c0-2.8,2.3-5.1,5.1-5.1c2.8,0,5.1,2.3,5.1,5.1C-813.6,63.7-815.9,66-818.7,66z"/>
	<circle id="Oval" class="st0" cx="-838.4" cy="30" r="4"/>
	<path class="st0" d="M-863.4,91.5c0,3-2.2,5.5-5,5.5c-2.8,0-5-2.5-5-5.5c0-3,2.2-5.5,5-5.5C-865.7,86-863.4,88.5-863.4,91.5z"/>
	<path class="st0" d="M-915.4,35c0,2.2-1.8,4-4,4c-2.2,0-4-1.8-4-4c0-2.2,1.8-4,4-4C-917.2,31-915.4,32.8-915.4,35z"/>
	<circle class="st0" cx="-833.4" cy="85" r="3"/>
	<path class="st0" d="M-894.4,77.5c0,2.5-2,4.5-4.5,4.5c-2.5,0-4.5-2-4.5-4.5c0-2.5,2-4.5,4.5-4.5C-896.4,73-894.4,75-894.4,77.5z"
		/>
	<path class="st0" d="M-912.4,79.5c0,1.9-1.6,3.5-3.5,3.5c-1.9,0-3.5-1.6-3.5-3.5s1.6-3.5,3.5-3.5C-914,76-912.4,77.6-912.4,79.5z"
		/>
	<circle class="st0" cx="-930.4" cy="47" r="3"/>
	<circle class="st0" cx="-876.4" cy="119" r="3"/>
	<circle class="st0" cx="-842.4" cy="58" r="3"/>
	<circle class="st0" cx="-896.4" cy="58" r="3"/>
	<circle class="st0" cx="-862.4" cy="21" r="3"/>
</g>
</svg>
