<?xml version="1.0" encoding="utf-8"?>
<!-- Generator: Adobe Illustrator 23.0.3, SVG Export Plug-In . SVG Version: 6.00 Build 0)  -->
<svg version="1.1" id="Layer_1" xmlns="http://www.w3.org/2000/svg" xmlns:xlink="http://www.w3.org/1999/xlink" x="0px" y="0px"
	 viewBox="0 0 190 190" style="enable-background:new 0 0 190 190;" xml:space="preserve">
<style type="text/css">
	.st0{fill:none;stroke:#000000;stroke-width:7;}
	.st1{fill-rule:evenodd;clip-rule:evenodd;}
</style>
<g id="Icon">
	<g id="Logo" transform="translate(-1099.000000, -820.000000)">
		<g id="logo-white" transform="translate(153.000000, 824.000000)">
			<circle id="circle-copy-3" class="st0" cx="1041" cy="91" r="84"/>
			<g id="Group-Copy-3" transform="translate(976.000000, 28.000000)">
				<path id="Shape" d="M69.1,25L69.1,25l0.3,0.2v0L69.1,25z M69,25.2l0.4,0.2v0L69,25.2z"/>
				<path d="M69,24.9L69,24.9L69,24.9L69,24.9L69,24.9L69,24.9L69,24.9L69,24.9z M67,24L67,24L67,24L67,24L67,24L67,24L67,24L67,24
					L67,24L67,24L67,24L67,24L67,24L67,24L67,24L67,24L67,24L67,24z"/>
				<polygon id="Path" class="st1" points="69,25 69,25 69,25 69,25 69,25 69,25 69,25 				"/>
				<polygon points="68,24 68,24 68.1,24 68.1,24.1 68.2,24.1 68.2,24.1 68.2,24.1 68.3,24.1 68.3,24 				"/>
				<polygon points="68,24 68,24 68.1,24 68.1,24.1 68.2,24.1 68.2,24.1 68.2,24.1 68.3,24.1 68.3,24 				"/>
				<path d="M68.1,24L68.1,24L68.1,24L68.1,24l0.2,0.1l0,0h0l0,0V24H68.1z M68.3,24.2L68.3,24.2L68.3,24.2l-0.1-0.1v0h-0.1v0h0
					l-0.1,0l0,0L68,24l0.1,0.1l0.1,0l0.1,0.1L68.3,24.2L68.3,24.2L68.3,24.2L68.3,24.2L68.3,24.2L68.3,24.2z"/>
				<path d="M68.1,24L68.1,24L68.1,24L68.1,24l0.2,0.1l0,0h0l0,0V24H68.1z M68.3,24.2L68.3,24.2L68.3,24.2l-0.1-0.1v0h-0.1v0h0
					l-0.1,0l0,0L68,24l0.1,0.1l0.1,0l0.1,0.1L68.3,24.2L68.3,24.2L68.3,24.2L68.3,24.2L68.3,24.2L68.3,24.2z"/>
				<path d="M68.1,24L68.1,24L68.1,24L68.1,24l0.2,0.1l0,0h0l0,0V24H68.1z M68.3,24.2L68.3,24.2L68.3,24.2l-0.1-0.1v0h-0.1v0h0
					l-0.1,0l0,0L68,24l0.1,0.1l0.1,0l0.1,0.1L68.3,24.2L68.3,24.2L68.3,24.2L68.3,24.2L68.3,24.2L68.3,24.2z"/>
				<path d="M68.1,24L68.1,24L68.1,24L68.1,24l0.2,0.1l0,0h0l0,0V24H68.1z M68.3,24.2L68.3,24.2L68.3,24.2l-0.1-0.1v0h-0.1v0h0
					l-0.1,0l0,0L68,24l0.1,0.1l0.1,0l0.1,0.1L68.3,24.2L68.3,24.2L68.3,24.2L68.3,24.2L68.3,24.2L68.3,24.2z"/>
				<path d="M68.1,24L68.1,24L68.1,24L68.1,24l0.2,0.1l0,0h0l0,0V24H68.1z M68.3,24.2L68.3,24.2L68.3,24.2l-0.1-0.1v0h-0.1v0h0
					l-0.1,0l0,0L68,24l0.1,0.1l0.1,0l0.1,0.1L68.3,24.2L68.3,24.2L68.3,24.2L68.3,24.2L68.3,24.2L68.3,24.2z"/>
				<path d="M68.1,24L68.1,24L68.1,24L68.1,24l0.2,0.1l0,0h0l0,0V24H68.1z M68.3,24.2L68.3,24.2L68.3,24.2l-0.1-0.1v0h-0.1v0h0
					l-0.1,0l0,0L68,24l0.1,0.1l0.1,0l0.1,0.1L68.3,24.2L68.3,24.2L68.3,24.2L68.3,24.2L68.3,24.2L68.3,24.2z"/>
				<path d="M68.1,24L68.1,24L68.1,24L68.1,24l0.2,0.1l0,0h0l0,0V24H68.1z M68.3,24.2L68.3,24.2L68.3,24.2l-0.1-0.1v0h-0.1v0h0
					l-0.1,0l0,0L68,24l0.1,0.1l0.1,0l0.1,0.1L68.3,24.2L68.3,24.2L68.3,24.2L68.3,24.2L68.3,24.2L68.3,24.2z"/>
				<path d="M68.1,24L68.1,24L68.1,24L68.1,24l0.2,0.1l0,0h0l0,0V24H68.1z M68.3,24.2L68.3,24.2L68.3,24.2l-0.1-0.1v0h-0.1v0h0
					l-0.1,0l0,0L68,24l0.1,0.1l0.1,0l0.1,0.1L68.3,24.2L68.3,24.2L68.3,24.2L68.3,24.2L68.3,24.2L68.3,24.2z"/>
				<path d="M68.1,24L68.1,24L68.1,24L68.1,24l0.2,0.1l0,0h0l0,0V24H68.1z M68.3,24.2L68.3,24.2L68.3,24.2l-0.1-0.1v0h-0.1v0h0
					l-0.1,0l0,0L68,24l0.1,0.1l0.1,0l0.1,0.1L68.3,24.2L68.3,24.2L68.3,24.2L68.3,24.2L68.3,24.2L68.3,24.2z"/>
				<path d="M68.1,24L68.1,24L68.1,24L68.1,24l0.2,0.1l0,0h0l0,0V24H68.1z M68.3,24.2L68.3,24.2L68.3,24.2l-0.1-0.1v0h-0.1v0h0
					l-0.1,0l0,0L68,24l0.1,0.1l0.1,0l0.1,0.1L68.3,24.2L68.3,24.2L68.3,24.2L68.3,24.2L68.3,24.2L68.3,24.2z"/>
				<path d="M69,25L69,25L69,25L69,25L69,25L69,25L69,25L69,25L69,25L69,25L69,25L69,25L69,25z M67,24L67,24L67,24L67,24L67,24
					L67,24L67,24L67,24L67,24L67,24z M67.1,24L67.1,24L67.1,24L67.1,24L67.1,24L67.1,24L67.1,24L67.1,24L67.1,24L67.1,24L67.1,24
					L67.1,24L67.1,24L67.1,24L67.1,24L67.1,24L67.1,24L67.1,24L67.1,24L67.1,24z"/>
				<path d="M67.1,24L67.1,24L67.1,24L67.1,24L67.1,24L67.1,24L67.1,24L67.1,24L67.1,24L67.1,24L67.1,24L67.1,24L67.1,24z M67.1,24
					L67.1,24L67.1,24L67.1,24L67.1,24L67.1,24L67.1,24L67.1,24L67.1,24L67.1,24L67.1,24L67.1,24L67.1,24L67.1,24L67.1,24L67.1,24
					L67.1,24L67.1,24L67.1,24L67.1,24z M68.6,24.8L68.6,24.8L68.6,24.8L68.6,24.8z M69,25L69,25L69,25L69,25L69,25L69,25L69,25
					L69,25L69,25L69,25z"/>
				<polygon points="69.1,25 69,25 69.6,25.3 				"/>
				<polygon points="69.1,25 69,25 69.6,25.3 				"/>
				<path d="M69.8,25L69.8,25l0.2,0.3L69.8,25z M69.1,25.2L69.1,25.2l0.1-0.1L69,25.1l0,0L69.1,25.2l0.1,0.3L69.1,25.2z"/>
				<polygon points="69.1,25 69,25 69.1,25.2 69.2,25.2 69.2,25.1 69.3,25.1 				"/>
				<polygon class="st1" points="69,25 69,25 69,25 69,25 69,25 69,25 69,25 69,25 				"/>
				<polygon class="st1" points="69,25 69,25 69,25 69,25 69,25 69,25 69,25 69,25 69,25 69,25 69,25 				"/>
				<polygon class="st1" points="69,25 69,25 69,25 69,25 69,25 69,25 				"/>
				<polygon class="st1" points="69,25 69,25 69,25 69,25 69,25 69,25 				"/>
				<polygon points="69,25 69.1,25.1 69.1,25.1 69.2,25.3 69.3,25.3 69.3,25.1 				"/>
				<polygon points="69,25 69.1,25.1 69.1,25.1 69.2,25.3 69.3,25.3 69.3,25.1 				"/>
				<polygon points="69,25 69.1,25.1 69.1,25.1 69.2,25.3 69.3,25.3 69.3,25.1 				"/>
				<polygon points="69,25 69.1,25.1 69.1,25.1 69.2,25.3 69.3,25.3 69.3,25.1 				"/>
				<path d="M121.7,49.5c-1.7,0-3.3,0.5-4.7,1.4L69,24.8v-0.1l-0.1-0.1l0.1,0l0.1,0v0v0l0,0h0h0h0v0l0,0h0v0
					C68.7,14.8,60.6,7,50.8,7c-10,0-18.2,8.2-18.2,18.2c0,5.5,2.4,10.4,6.3,13.8L23.8,50.8c-1.3-0.8-2.8-1.3-4.5-1.3
					c-4.6,0-8.3,3.7-8.3,8.3c0,4.6,3.7,8.3,8.3,8.3c4.6,0,8.3-3.7,8.3-8.3c0-1.8-0.6-3.4-1.5-4.8L41.6,41c2.7,1.6,5.9,2.5,9.2,2.5
					c3.2,0,6.3-0.9,8.9-2.4l8.4,9.1c-4.1,3-6.7,7.8-6.7,13.2c0,4.1,1.5,7.9,4.1,10.8l-19,18c-2.6-2.1-6-3.3-9.6-3.3
					c-8.6,0-15.5,7-15.5,15.6c0,8.6,7,15.6,15.5,15.6c7.7,0,14-5.6,15.3-12.9h24.6c0.7,6.2,6.1,11.1,12.5,11.1
					c6.9,0,12.6-5.7,12.6-12.6c0-7-5.6-12.6-12.6-12.6c-6.4,0-11.7,4.8-12.5,11H52.5c-0.1-3.6-1.5-7-3.6-9.6l19-18
					c2.7,2.1,6.1,3.3,9.8,3.3c8.9,0,16.2-7.3,16.2-16.3s-7.3-16.3-16.2-16.3c-2.4,0-4.6,0.5-6.7,1.4l-8.6-9.3
					c3.3-2.7,5.6-6.6,6.3-11l-0.1,0v0c0,0,0,0,0,0v0l0.1,0l0,0l0,0l46,25h0l0,0c-0.9,1.3-1.4,2.9-1.4,4.6c0,4.6,3.7,8.3,8.3,8.3
					s8.3-3.7,8.3-8.3C130,53.3,126.3,49.5,121.7,49.5z M19.3,63c-2.8,0-5.1-2.3-5.1-5.1c0-2.8,2.3-5.1,5.1-5.1
					c2.8,0,5.1,2.3,5.1,5.1C24.4,60.7,22.1,63,19.3,63z M36.9,115.2c-5.9,0-10.7-4.8-10.7-10.8c0-5.9,4.8-10.8,10.7-10.8
					c5.9,0,10.7,4.8,10.7,10.8C47.7,110.4,42.9,115.2,36.9,115.2z M89.3,97.8c4.3,0,7.8,3.5,7.8,7.8s-3.5,7.8-7.8,7.8
					c-4.3,0-7.8-3.5-7.8-7.8S85,97.8,89.3,97.8z M77.6,51.9c6.3,0,11.4,5.1,11.4,11.5c0,6.3-5.1,11.5-11.4,11.5
					c-6.3,0-11.4-5.1-11.4-11.5C66.2,57.1,71.3,51.9,77.6,51.9z M50.8,38.7c-7.4,0-13.4-6-13.4-13.4s6-13.4,13.4-13.4
					s13.4,6,13.4,13.4S58.2,38.7,50.8,38.7z M67.5,23.8L67.5,23.8L67.5,23.8L67.5,23.8L67.5,23.8L67.5,23.8L67.5,23.8L67.5,23.8
					L67.5,23.8L67.5,23.8L67.5,23.8L67.5,23.8L67.5,23.8L67.5,23.8L67.5,23.8L67.5,23.8L67.5,23.8L67.5,23.8L67.5,23.8L67.5,23.8z
					 M67.5,23.8L67.5,23.8L67.5,23.8L67.5,23.8L67.5,23.8L67.5,23.8L67.5,23.8L67.5,23.8L67.5,23.8L67.5,23.8L67.5,23.8z M68.5,24.5
					L68.5,24.5L68.5,24.5L68.5,24.5L68.5,24.5L68.5,24.5L68.5,24.5L68.5,24.5z M68.7,24.5L68.7,24.5L68.7,24.5L68.7,24.5z M121.7,63
					c-2.8,0-5.1-2.3-5.1-5.1c0-2.8,2.3-5.1,5.1-5.1c2.8,0,5.1,2.3,5.1,5.1C126.8,60.7,124.5,63,121.7,63z"/>
				<circle id="Oval" class="st1" cx="102" cy="27" r="4"/>
				<path class="st1" d="M77,88.5c0,3-2.2,5.5-5,5.5c-2.8,0-5-2.5-5-5.5c0-3,2.2-5.5,5-5.5C74.8,83,77,85.5,77,88.5z"/>
				<path class="st1" d="M25,32c0,2.2-1.8,4-4,4c-2.2,0-4-1.8-4-4c0-2.2,1.8-4,4-4C23.2,28,25,29.8,25,32z"/>
				<circle class="st1" cx="107" cy="82" r="3"/>
				<path class="st1" d="M46,74.5c0,2.5-2,4.5-4.5,4.5C39,79,37,77,37,74.5c0-2.5,2-4.5,4.5-4.5C44,70,46,72,46,74.5z"/>
				<path class="st1" d="M28,76.5c0,1.9-1.6,3.5-3.5,3.5S21,78.4,21,76.5s1.6-3.5,3.5-3.5S28,74.6,28,76.5z"/>
				<circle class="st1" cx="10" cy="44" r="3"/>
				<circle class="st1" cx="64" cy="116" r="3"/>
				<circle class="st1" cx="98" cy="55" r="3"/>
				<circle class="st1" cx="44" cy="55" r="3"/>
				<circle class="st1" cx="78" cy="18" r="3"/>
			</g>
		</g>
	</g>
</g>
</svg>
